<svg width="96" height="110" viewBox="0 0 96 110" fill="none" xmlns="http://www.w3.org/2000/svg">
<path d="M1.464 91V71.56H5.016V88.552H9.72V91H1.464ZM11.4456 91V77.128H14.7096V91H11.4456ZM11.4456 74.92V72.208H14.7096V74.92H11.4456ZM22.9427 95.56V89.968C22.5747 90.352 22.1827 90.656 21.7667 90.88C21.3507 91.104 20.9027 91.216 20.4227 91.216C19.3187 91.216 18.4867 90.824 17.9267 90.04C17.3667 89.256 17.0867 88 17.0867 86.272V82.024C17.0867 81.064 17.1907 80.2 17.3987 79.432C17.6067 78.664 17.9507 78.056 18.4307 77.608C18.9267 77.144 19.5827 76.912 20.3987 76.912C20.8947 76.912 21.3507 77.016 21.7667 77.224C22.1987 77.432 22.5907 77.704 22.9427 78.04V77.128H26.2067V95.56H22.9427ZM21.6467 88.96C21.8227 88.96 22.0227 88.92 22.2467 88.84C22.4867 88.76 22.7187 88.648 22.9427 88.504V79.624C22.7507 79.48 22.5427 79.368 22.3187 79.288C22.0947 79.192 21.8627 79.144 21.6227 79.144C21.1427 79.144 20.8067 79.36 20.6147 79.792C20.4387 80.208 20.3507 80.72 20.3507 81.328V86.512C20.3507 86.976 20.3827 87.392 20.4467 87.76C20.5267 88.128 20.6547 88.424 20.8307 88.648C21.0227 88.856 21.2947 88.96 21.6467 88.96ZM30.9019 91.216C30.3579 91.216 29.9099 91.08 29.5579 90.808C29.2059 90.52 28.9499 90.144 28.7899 89.68C28.6299 89.2 28.5499 88.696 28.5499 88.168V77.128H31.8139V87.568C31.8139 87.984 31.8779 88.312 32.0059 88.552C32.1499 88.776 32.4059 88.888 32.7739 88.888C33.0139 88.888 33.2539 88.824 33.4939 88.696C33.7499 88.568 33.9979 88.416 34.2379 88.24V77.128H37.5019V91H34.2379V89.68C33.7739 90.128 33.2619 90.496 32.7019 90.784C32.1419 91.072 31.5419 91.216 30.9019 91.216ZM40.1096 91V77.128H43.3736V91H40.1096ZM40.1096 74.92V72.208H43.3736V74.92H40.1096Z" fill="#FF7A00"/>
<path d="M51.4148 91.264C49.9908 91.264 48.8708 90.984 48.0548 90.424C47.2548 89.864 46.6948 89.104 46.3748 88.144C46.0548 87.168 45.8948 86.048 45.8948 84.784V77.848C45.8948 76.52 46.0548 75.368 46.3748 74.392C46.6948 73.416 47.2548 72.664 48.0548 72.136C48.8708 71.608 49.9908 71.344 51.4148 71.344C52.7588 71.344 53.8068 71.576 54.5588 72.04C55.3268 72.488 55.8708 73.136 56.1908 73.984C56.5108 74.832 56.6708 75.816 56.6708 76.936V78.568H53.2628V76.888C53.2628 76.344 53.2308 75.848 53.1668 75.4C53.1188 74.952 52.9668 74.6 52.7108 74.344C52.4708 74.072 52.0468 73.936 51.4388 73.936C50.8308 73.936 50.3828 74.08 50.0948 74.368C49.8228 74.64 49.6468 75.016 49.5668 75.496C49.4868 75.96 49.4468 76.488 49.4468 77.08V85.528C49.4468 86.232 49.5028 86.816 49.6148 87.28C49.7268 87.728 49.9268 88.072 50.2148 88.312C50.5188 88.536 50.9268 88.648 51.4388 88.648C52.0308 88.648 52.4468 88.512 52.6868 88.24C52.9428 87.952 53.1028 87.576 53.1668 87.112C53.2308 86.648 53.2628 86.128 53.2628 85.552V83.8H56.6708V85.36C56.6708 86.512 56.5188 87.536 56.2148 88.432C55.9108 89.312 55.3748 90.008 54.6068 90.52C53.8548 91.016 52.7908 91.264 51.4148 91.264ZM59.0237 94.768V92.416C59.5837 92.416 60.0397 92.384 60.3917 92.32C60.7437 92.256 60.9997 92.144 61.1597 91.984C61.3197 91.824 61.3997 91.6 61.3997 91.312C61.3997 91.104 61.3437 90.776 61.2317 90.328C61.1357 89.88 61.0237 89.392 60.8957 88.864L57.8477 77.128H61.0157L62.8157 86.272L64.3757 77.128H67.5197L64.2797 91.552C64.1037 92.368 63.8077 93.008 63.3917 93.472C62.9757 93.936 62.4557 94.264 61.8317 94.456C61.2077 94.664 60.4797 94.768 59.6477 94.768H59.0237ZM73.2053 91.216C72.1333 91.216 71.2693 91.016 70.6133 90.616C69.9733 90.2 69.5013 89.616 69.1973 88.864C68.9093 88.096 68.7653 87.192 68.7653 86.152V81.976C68.7653 80.904 68.9093 79.992 69.1973 79.24C69.5013 78.488 69.9813 77.912 70.6373 77.512C71.2933 77.112 72.1493 76.912 73.2053 76.912C74.1973 76.912 75.0053 77.072 75.6293 77.392C76.2693 77.696 76.7333 78.168 77.0213 78.808C77.3093 79.432 77.4533 80.224 77.4533 81.184V82.336H74.3813V81.112C74.3813 80.632 74.3413 80.256 74.2613 79.984C74.1973 79.696 74.0773 79.496 73.9013 79.384C73.7253 79.256 73.4933 79.192 73.2053 79.192C72.9173 79.192 72.6853 79.272 72.5093 79.432C72.3333 79.576 72.2053 79.816 72.1253 80.152C72.0613 80.488 72.0293 80.952 72.0293 81.544V86.632C72.0293 87.528 72.1253 88.136 72.3173 88.456C72.5093 88.76 72.8133 88.912 73.2293 88.912C73.5493 88.912 73.7893 88.84 73.9492 88.696C74.1253 88.552 74.2373 88.344 74.2853 88.072C74.3493 87.784 74.3813 87.44 74.3813 87.04V85.552H77.4533V86.872C77.4533 87.8 77.3013 88.592 76.9973 89.248C76.7093 89.904 76.2453 90.4 75.6053 90.736C74.9813 91.056 74.1813 91.216 73.2053 91.216ZM79.8156 91V71.56H83.0556V91H79.8156ZM89.8464 91.216C88.8064 91.216 87.9584 91.024 87.3024 90.64C86.6464 90.24 86.1584 89.664 85.8384 88.912C85.5344 88.144 85.3824 87.224 85.3824 86.152V81.976C85.3824 80.872 85.5344 79.944 85.8384 79.192C86.1584 78.44 86.6464 77.872 87.3024 77.488C87.9744 77.104 88.8224 76.912 89.8464 76.912C90.9504 76.912 91.8064 77.12 92.4144 77.536C93.0384 77.952 93.4784 78.56 93.7344 79.36C94.0064 80.144 94.1424 81.104 94.1424 82.24V84.208H88.6224V86.944C88.6224 87.392 88.6624 87.76 88.7424 88.048C88.8384 88.336 88.9824 88.544 89.1744 88.672C89.3664 88.8 89.5984 88.864 89.8704 88.864C90.1584 88.864 90.3904 88.8 90.5664 88.672C90.7424 88.528 90.8704 88.328 90.9504 88.072C91.0304 87.8 91.0704 87.464 91.0704 87.064V85.912H94.1184V86.848C94.1184 88.256 93.7664 89.336 93.0624 90.088C92.3584 90.84 91.2864 91.216 89.8464 91.216ZM88.6224 82.6H91.0704V81.28C91.0704 80.8 91.0304 80.416 90.9504 80.128C90.8704 79.824 90.7424 79.608 90.5664 79.48C90.3904 79.336 90.1424 79.264 89.8224 79.264C89.5344 79.264 89.3024 79.336 89.1264 79.48C88.9504 79.624 88.8224 79.864 88.7424 80.2C88.6624 80.536 88.6224 81.016 88.6224 81.64V82.6Z" fill="#795A3D"/>
<path d="M47.0075 50.2222L49.8223 60.1185L29.4963 59.4963C25.2297 59.4963 19.3037 56.5334 21.4371 52.6519L26.4149 48.8889L47.0075 50.2222Z" fill="#795A3D"/>
<path d="M32.4593 22.9333L41.6741 38.9037L31.6 33.8667L28.1333 50.8148C27.6 51.7037 27.837 58.1037 27.4815 59.4963C25.763 58.2815 29.8815 60.8296 22.6815 57.363C19.0963 55.3185 18.8 53.1556 18.2074 50.8445C17.8222 49.3926 17.1407 47.2889 17.763 42.2222C17.9407 39.8815 18.2963 37.6296 18.6519 37.0074L21.437 27.3482L14 23.0815L32.4593 22.9333Z" fill="#FF7A00"/>
<path d="M59.748 49.6889C59.8666 52.5926 60.9036 55.3185 62.6221 57.2741C64.3406 59.2296 66.5925 60.237 68.874 60.0889C71.1555 60.237 73.4073 59.2296 75.1258 57.2741C76.8443 55.3185 77.8518 52.5926 77.9999 49.6889C77.9999 41.6 68.874 30.0444 68.874 30.0444C68.874 30.0444 59.748 41.6 59.748 49.6889Z" fill="#FF7A00"/>
<path d="M65.3481 31.8517L51.4518 28.7702L56.6074 25.8073L50.2074 14.7258C49.8518 14.1036 48.4592 11.7925 47.7185 11.0517L55.5111 1.83691C56.8741 1.83691 61.9407 13.6295 62.4148 14.4888L65.5555 20.5036L70.7111 17.5406L65.3481 31.8517Z" fill="#795A3D"/>
<path d="M40.8742 21.2148L30.2964 16.4148L43.2445 1.77778C45.1408 -0.503704 54.6223 -0.77037 55.7482 2.04444L55.8668 3.31852L40.8742 21.2148Z" fill="#FF7A00"/>
<path d="M33.6274 108V99.6686H36.0754C36.576 99.6686 36.9806 99.7611 37.2891 99.9463C37.6046 100.131 37.8343 100.402 37.9783 100.759C38.1291 101.109 38.2046 101.534 38.2046 102.034C38.2046 102.576 38.112 103.015 37.9269 103.351C37.7417 103.68 37.4811 103.92 37.1451 104.071C36.816 104.222 36.4251 104.297 35.9726 104.297H35.1497V108H33.6274ZM35.1497 103.227H35.7257C36 103.227 36.2126 103.19 36.3634 103.114C36.5211 103.032 36.6274 102.905 36.6823 102.734C36.744 102.555 36.7749 102.319 36.7749 102.024C36.7749 101.722 36.7509 101.479 36.7029 101.294C36.6617 101.102 36.5657 100.961 36.4149 100.872C36.2709 100.783 36.0411 100.738 35.7257 100.738H35.1497V103.227ZM41.3144 108.113C40.7247 108.113 40.255 108.003 39.9053 107.784C39.5555 107.565 39.3052 107.249 39.1544 106.838C39.0035 106.426 38.9281 105.939 38.9281 105.377V102.261C38.9281 101.698 39.0035 101.218 39.1544 100.821C39.3052 100.416 39.5555 100.107 39.9053 99.8949C40.255 99.6823 40.7247 99.576 41.3144 99.576C41.9178 99.576 42.391 99.6823 42.7338 99.8949C43.0835 100.107 43.3338 100.416 43.4847 100.821C43.6424 101.218 43.7213 101.698 43.7213 102.261V105.387C43.7213 105.943 43.6424 106.426 43.4847 106.838C43.3338 107.242 43.0835 107.558 42.7338 107.784C42.391 108.003 41.9178 108.113 41.3144 108.113ZM41.3144 106.992C41.5681 106.992 41.7533 106.937 41.8698 106.827C41.9933 106.718 42.0755 106.567 42.1167 106.375C42.1578 106.183 42.1784 105.974 42.1784 105.747V101.911C42.1784 101.678 42.1578 101.469 42.1167 101.283C42.0755 101.098 41.9933 100.954 41.8698 100.851C41.7533 100.742 41.5681 100.687 41.3144 100.687C41.0744 100.687 40.8927 100.742 40.7693 100.851C40.6458 100.954 40.5635 101.098 40.5224 101.283C40.4813 101.469 40.4607 101.678 40.4607 101.911V105.747C40.4607 105.974 40.4778 106.183 40.5121 106.375C40.5532 106.567 40.6355 106.718 40.759 106.827C40.8824 106.937 41.0675 106.992 41.3144 106.992ZM46.9456 108.113C46.445 108.113 46.0267 108.017 45.6907 107.825C45.3547 107.626 45.101 107.338 44.9296 106.961C44.7582 106.584 44.6622 106.121 44.6416 105.573L45.9479 105.315C45.9616 105.638 45.9993 105.922 46.061 106.169C46.1296 106.416 46.229 106.608 46.3593 106.745C46.4964 106.875 46.6747 106.941 46.8942 106.941C47.141 106.941 47.3159 106.869 47.4187 106.725C47.5216 106.574 47.573 106.385 47.573 106.159C47.573 105.795 47.4907 105.497 47.3262 105.264C47.1616 105.031 46.9422 104.798 46.6679 104.565L45.6187 103.639C45.3239 103.385 45.0873 103.104 44.909 102.795C44.7376 102.48 44.6519 102.093 44.6519 101.633C44.6519 100.975 44.8439 100.467 45.2279 100.111C45.6119 99.7543 46.1364 99.576 46.8016 99.576C47.1924 99.576 47.5182 99.6377 47.7787 99.7611C48.0393 99.8777 48.245 100.042 48.3959 100.255C48.5536 100.467 48.6702 100.711 48.7456 100.985C48.821 101.253 48.869 101.537 48.8896 101.839L47.5936 102.065C47.5799 101.805 47.549 101.571 47.501 101.366C47.4599 101.16 47.381 100.999 47.2644 100.882C47.1547 100.766 46.9902 100.707 46.7707 100.707C46.5444 100.707 46.3696 100.783 46.2462 100.934C46.1296 101.078 46.0713 101.259 46.0713 101.479C46.0713 101.76 46.1296 101.993 46.2462 102.178C46.3627 102.357 46.5307 102.542 46.7502 102.734L47.789 103.649C48.1319 103.937 48.4233 104.277 48.6633 104.667C48.9102 105.051 49.0336 105.518 49.0336 106.066C49.0336 106.464 48.9444 106.817 48.7662 107.126C48.5947 107.434 48.3513 107.678 48.0359 107.856C47.7273 108.027 47.3639 108.113 46.9456 108.113ZM50.763 108V100.79H49.4362V99.6686H53.5916V100.79H52.2853V108H50.763ZM56.5722 108.113C55.9825 108.113 55.5128 108.003 55.1631 107.784C54.8133 107.565 54.5631 107.249 54.4122 106.838C54.2613 106.426 54.1859 105.939 54.1859 105.377V102.261C54.1859 101.698 54.2613 101.218 54.4122 100.821C54.5631 100.416 54.8133 100.107 55.1631 99.8949C55.5128 99.6823 55.9825 99.576 56.5722 99.576C57.1756 99.576 57.6488 99.6823 57.9916 99.8949C58.3413 100.107 58.5916 100.416 58.7425 100.821C58.9002 101.218 58.9791 101.698 58.9791 102.261V105.387C58.9791 105.943 58.9002 106.426 58.7425 106.838C58.5916 107.242 58.3413 107.558 57.9916 107.784C57.6488 108.003 57.1756 108.113 56.5722 108.113ZM56.5722 106.992C56.8259 106.992 57.0111 106.937 57.1276 106.827C57.2511 106.718 57.3333 106.567 57.3745 106.375C57.4156 106.183 57.4362 105.974 57.4362 105.747V101.911C57.4362 101.678 57.4156 101.469 57.3745 101.283C57.3333 101.098 57.2511 100.954 57.1276 100.851C57.0111 100.742 56.8259 100.687 56.5722 100.687C56.3322 100.687 56.1505 100.742 56.0271 100.851C55.9036 100.954 55.8213 101.098 55.7802 101.283C55.7391 101.469 55.7185 101.678 55.7185 101.911V105.747C55.7185 105.974 55.7356 106.183 55.7699 106.375C55.8111 106.567 55.8933 106.718 56.0168 106.827C56.1402 106.937 56.3253 106.992 56.5722 106.992Z" fill="#FF7A00"/>
</svg>
