<svg width="512" height="512" viewBox="0 0 512 512" fill="none" xmlns="http://www.w3.org/2000/svg">
<rect width="512" height="512" fill="url(#paint0_linear_507_4889)"/>
<path d="M81.5205 391.792V318.487H94.9145V382.561H112.652V391.792H81.5205ZM119.159 391.792V339.483H131.467V391.792H119.159ZM119.159 331.157V320.93H131.467V331.157H119.159ZM162.513 408.987V387.9C161.125 389.348 159.647 390.494 158.079 391.339C156.51 392.184 154.821 392.606 153.011 392.606C148.848 392.606 145.71 391.128 143.599 388.172C141.487 385.215 140.431 380.479 140.431 373.963V357.945C140.431 354.325 140.823 351.067 141.608 348.171C142.392 345.275 143.689 342.982 145.499 341.293C147.369 339.543 149.843 338.668 152.92 338.668C154.79 338.668 156.51 339.06 158.079 339.845C159.708 340.629 161.186 341.655 162.513 342.922V339.483H174.821V408.987H162.513ZM157.626 384.099C158.29 384.099 159.044 383.948 159.889 383.647C160.794 383.345 161.668 382.923 162.513 382.38V348.895C161.789 348.352 161.005 347.929 160.16 347.628C159.315 347.266 158.441 347.085 157.536 347.085C155.726 347.085 154.459 347.899 153.735 349.528C153.071 351.097 152.739 353.027 152.739 355.32V374.868C152.739 376.618 152.86 378.186 153.101 379.574C153.403 380.962 153.885 382.078 154.549 382.923C155.273 383.707 156.299 384.099 157.626 384.099ZM192.526 392.606C190.474 392.606 188.785 392.093 187.458 391.068C186.13 389.982 185.165 388.564 184.562 386.814C183.958 385.004 183.657 383.104 183.657 381.113V339.483H195.965V378.85C195.965 380.419 196.206 381.656 196.689 382.561C197.232 383.405 198.197 383.828 199.585 383.828C200.49 383.828 201.395 383.586 202.3 383.104C203.265 382.621 204.2 382.048 205.105 381.384V339.483H217.413V391.792H205.105V386.814C203.356 388.503 201.425 389.891 199.313 390.977C197.202 392.063 194.939 392.606 192.526 392.606ZM227.247 391.792V339.483H239.555V391.792H227.247ZM227.247 331.157V320.93H239.555V331.157H227.247Z" fill="#FF7A00"/>
<path d="M269.876 392.787C264.507 392.787 260.283 391.731 257.206 389.62C254.19 387.508 252.078 384.642 250.871 381.022C249.665 377.342 249.061 373.118 249.061 368.352V342.198C249.061 337.19 249.665 332.846 250.871 329.166C252.078 325.485 254.19 322.65 257.206 320.659C260.283 318.668 264.507 317.672 269.876 317.672C274.944 317.672 278.896 318.547 281.732 320.297C284.628 321.986 286.679 324.429 287.886 327.627C289.093 330.825 289.696 334.535 289.696 338.759V344.913H276.845V338.578C276.845 336.526 276.724 334.656 276.483 332.967C276.302 331.277 275.729 329.95 274.763 328.985C273.858 327.959 272.26 327.446 269.967 327.446C267.674 327.446 265.985 327.989 264.899 329.075C263.873 330.101 263.21 331.519 262.908 333.329C262.606 335.078 262.455 337.069 262.455 339.302V371.158C262.455 373.812 262.667 376.014 263.089 377.764C263.511 379.453 264.265 380.751 265.351 381.656C266.498 382.5 268.036 382.923 269.967 382.923C272.199 382.923 273.768 382.41 274.673 381.384C275.638 380.298 276.242 378.88 276.483 377.131C276.724 375.381 276.845 373.42 276.845 371.248V364.642H289.696V370.524C289.696 374.868 289.123 378.729 287.976 382.108C286.83 385.426 284.809 388.051 281.913 389.982C279.077 391.852 275.065 392.787 269.876 392.787ZM298.568 406V397.131C300.68 397.131 302.4 397.01 303.727 396.769C305.054 396.528 306.02 396.105 306.623 395.502C307.226 394.899 307.528 394.054 307.528 392.968C307.528 392.184 307.317 390.947 306.894 389.258C306.532 387.568 306.11 385.728 305.627 383.737L294.134 339.483H306.08L312.867 373.963L318.75 339.483H330.605L318.388 393.873C317.724 396.95 316.608 399.363 315.039 401.113C313.471 402.863 311.51 404.1 309.157 404.824C306.804 405.608 304.059 406 300.921 406H298.568ZM352.045 392.606C348.002 392.606 344.744 391.852 342.271 390.344C339.857 388.775 338.078 386.573 336.931 383.737C335.845 380.841 335.302 377.432 335.302 373.511V357.764C335.302 353.721 335.845 350.282 336.931 347.447C338.078 344.611 339.888 342.439 342.361 340.931C344.835 339.422 348.063 338.668 352.045 338.668C355.785 338.668 358.832 339.271 361.185 340.478C363.599 341.624 365.348 343.404 366.434 345.818C367.52 348.171 368.063 351.157 368.063 354.777V359.121H356.479V354.506C356.479 352.696 356.328 351.278 356.027 350.252C355.785 349.166 355.333 348.412 354.669 347.99C354.006 347.507 353.131 347.266 352.045 347.266C350.959 347.266 350.084 347.567 349.42 348.171C348.757 348.714 348.274 349.619 347.972 350.886C347.731 352.153 347.61 353.902 347.61 356.135V375.321C347.61 378.699 347.972 380.992 348.696 382.199C349.42 383.345 350.567 383.918 352.135 383.918C353.342 383.918 354.247 383.647 354.85 383.104C355.514 382.561 355.936 381.776 356.117 380.751C356.359 379.665 356.479 378.367 356.479 376.859V371.248H368.063V376.226C368.063 379.725 367.49 382.711 366.344 385.185C365.258 387.659 363.508 389.529 361.095 390.796C358.742 392.003 355.725 392.606 352.045 392.606ZM376.971 391.792V318.487H389.189V391.792H376.971ZM414.796 392.606C410.874 392.606 407.677 391.882 405.203 390.434C402.729 388.926 400.889 386.754 399.682 383.918C398.536 381.022 397.963 377.553 397.963 373.511V357.764C397.963 353.601 398.536 350.101 399.682 347.266C400.889 344.43 402.729 342.288 405.203 340.84C407.737 339.392 410.935 338.668 414.796 338.668C418.959 338.668 422.187 339.452 424.479 341.021C426.832 342.59 428.492 344.882 429.457 347.899C430.483 350.855 430.995 354.475 430.995 358.759V366.18H410.18V376.497C410.18 378.186 410.331 379.574 410.633 380.66C410.995 381.746 411.538 382.53 412.262 383.013C412.986 383.496 413.861 383.737 414.886 383.737C415.972 383.737 416.847 383.496 417.511 383.013C418.175 382.47 418.657 381.716 418.959 380.751C419.261 379.725 419.411 378.458 419.411 376.95V372.606H430.905V376.135C430.905 381.444 429.578 385.517 426.923 388.353C424.268 391.188 420.226 392.606 414.796 392.606ZM410.18 360.117H419.411V355.139C419.411 353.329 419.261 351.881 418.959 350.795C418.657 349.649 418.175 348.834 417.511 348.352C416.847 347.809 415.912 347.537 414.705 347.537C413.619 347.537 412.745 347.809 412.081 348.352C411.417 348.895 410.935 349.8 410.633 351.067C410.331 352.334 410.18 354.144 410.18 356.497V360.117Z" fill="#795A3D"/>
<path d="M253.257 239.38L263.872 276.697L187.226 274.351C171.137 274.351 148.791 263.178 156.836 248.541L175.606 234.352L253.257 239.38Z" fill="#795A3D"/>
<path d="M198.398 136.478L233.146 196.699L195.158 177.706L182.086 241.614C180.075 244.966 180.969 269.099 179.628 274.351C173.148 269.77 188.678 279.378 161.528 266.306C148.009 258.597 146.892 250.441 144.657 241.726C143.205 236.251 140.635 228.318 142.981 209.213C143.652 200.386 144.992 191.895 146.333 189.549L156.836 153.125L128.792 137.036L198.398 136.478Z" fill="#FF7A00"/>
<path d="M301.3 237.368C301.747 248.318 305.657 258.597 312.138 265.971C318.618 273.345 327.109 277.144 335.712 276.585C344.315 277.144 352.807 273.345 359.287 265.971C365.767 258.597 369.566 248.318 370.125 237.368C370.125 206.867 335.712 163.292 335.712 163.292C335.712 163.292 301.3 206.867 301.3 237.368Z" fill="#FF7A00"/>
<path d="M322.417 170.108L270.017 158.488L289.457 147.315L265.324 105.529C263.983 103.183 258.732 94.468 255.939 91.6748L285.324 56.9272C290.463 56.9272 309.569 101.395 311.356 104.635L323.199 127.316L342.64 116.143L322.417 170.108Z" fill="#795A3D"/>
<path d="M230.129 129.997L190.242 111.897L239.067 56.7037C246.218 48.1006 281.971 47.0951 286.217 57.7093L286.664 62.5136L230.129 129.997Z" fill="#FF7A00"/>
<path d="M202.803 458V426.583H212.034C213.922 426.583 215.448 426.932 216.611 427.631C217.801 428.329 218.667 429.35 219.21 430.695C219.779 432.013 220.063 433.616 220.063 435.504C220.063 437.547 219.714 439.202 219.016 440.469C218.318 441.71 217.335 442.615 216.068 443.184C214.827 443.752 213.353 444.037 211.647 444.037H208.544V458H202.803ZM208.544 440.003H210.716C211.75 440.003 212.552 439.861 213.12 439.577C213.715 439.266 214.116 438.788 214.323 438.141C214.555 437.469 214.672 436.577 214.672 435.465C214.672 434.328 214.581 433.41 214.4 432.711C214.245 431.987 213.883 431.457 213.314 431.121C212.771 430.785 211.905 430.617 210.716 430.617H208.544V440.003ZM231.79 458.426C229.566 458.426 227.795 458.013 226.476 457.185C225.157 456.358 224.214 455.168 223.645 453.617C223.076 452.066 222.791 450.23 222.791 448.109V436.357C222.791 434.237 223.076 432.427 223.645 430.927C224.214 429.402 225.157 428.238 226.476 427.437C227.795 426.635 229.566 426.234 231.79 426.234C234.065 426.234 235.849 426.635 237.142 427.437C238.461 428.238 239.405 429.402 239.973 430.927C240.568 432.427 240.866 434.237 240.866 436.357V448.148C240.866 450.243 240.568 452.066 239.973 453.617C239.405 455.143 238.461 456.332 237.142 457.185C235.849 458.013 234.065 458.426 231.79 458.426ZM231.79 454.199C232.746 454.199 233.445 453.992 233.884 453.578C234.35 453.164 234.66 452.596 234.815 451.872C234.97 451.148 235.048 450.359 235.048 449.506V435.039C235.048 434.159 234.97 433.371 234.815 432.673C234.66 431.975 234.35 431.432 233.884 431.044C233.445 430.63 232.746 430.423 231.79 430.423C230.885 430.423 230.199 430.63 229.734 431.044C229.269 431.432 228.958 431.975 228.803 432.673C228.648 433.371 228.57 434.159 228.57 435.039V449.506C228.57 450.359 228.635 451.148 228.764 451.872C228.92 452.596 229.23 453.164 229.695 453.578C230.161 453.992 230.859 454.199 231.79 454.199ZM253.024 458.426C251.136 458.426 249.559 458.064 248.292 457.34C247.025 456.591 246.068 455.505 245.422 454.082C244.776 452.66 244.414 450.915 244.336 448.846L249.262 447.877C249.313 449.092 249.456 450.165 249.688 451.096C249.947 452.027 250.322 452.751 250.813 453.268C251.33 453.759 252.003 454.005 252.83 454.005C253.761 454.005 254.42 453.733 254.808 453.19C255.196 452.621 255.39 451.91 255.39 451.057C255.39 449.687 255.08 448.562 254.459 447.683C253.838 446.804 253.011 445.924 251.977 445.045L248.021 441.555C246.909 440.598 246.017 439.538 245.344 438.374C244.698 437.185 244.375 435.724 244.375 433.991C244.375 431.509 245.099 429.596 246.547 428.251C247.995 426.907 249.973 426.234 252.481 426.234C253.955 426.234 255.183 426.467 256.166 426.932C257.148 427.372 257.924 427.993 258.493 428.794C259.087 429.596 259.527 430.514 259.811 431.548C260.096 432.556 260.277 433.629 260.354 434.767L255.467 435.62C255.416 434.638 255.299 433.759 255.118 432.983C254.963 432.207 254.666 431.6 254.226 431.16C253.813 430.72 253.192 430.501 252.365 430.501C251.511 430.501 250.852 430.785 250.387 431.354C249.947 431.897 249.727 432.582 249.727 433.41C249.727 434.47 249.947 435.349 250.387 436.047C250.826 436.719 251.46 437.417 252.287 438.141L256.204 441.593C257.497 442.679 258.596 443.959 259.501 445.433C260.432 446.881 260.897 448.639 260.897 450.708C260.897 452.208 260.561 453.539 259.889 454.703C259.243 455.867 258.325 456.784 257.135 457.457C255.972 458.103 254.601 458.426 253.024 458.426ZM267.419 458V430.811H262.416V426.583H278.085V430.811H273.159V458H267.419ZM289.324 458.426C287.101 458.426 285.329 458.013 284.011 457.185C282.692 456.358 281.748 455.168 281.179 453.617C280.61 452.066 280.326 450.23 280.326 448.109V436.357C280.326 434.237 280.61 432.427 281.179 430.927C281.748 429.402 282.692 428.238 284.011 427.437C285.329 426.635 287.101 426.234 289.324 426.234C291.6 426.234 293.384 426.635 294.677 427.437C295.995 428.238 296.939 429.402 297.508 430.927C298.103 432.427 298.4 434.237 298.4 436.357V448.148C298.4 450.243 298.103 452.066 297.508 453.617C296.939 455.143 295.995 456.332 294.677 457.185C293.384 458.013 291.6 458.426 289.324 458.426ZM289.324 454.199C290.281 454.199 290.979 453.992 291.419 453.578C291.884 453.164 292.194 452.596 292.35 451.872C292.505 451.148 292.582 450.359 292.582 449.506V435.039C292.582 434.159 292.505 433.371 292.35 432.673C292.194 431.975 291.884 431.432 291.419 431.044C290.979 430.63 290.281 430.423 289.324 430.423C288.419 430.423 287.734 430.63 287.269 431.044C286.803 431.432 286.493 431.975 286.338 432.673C286.183 433.371 286.105 434.159 286.105 435.039V449.506C286.105 450.359 286.17 451.148 286.299 451.872C286.454 452.596 286.764 453.164 287.23 453.578C287.695 453.992 288.393 454.199 289.324 454.199Z" fill="#FF7A00"/>
<defs>
<linearGradient id="paint0_linear_507_4889" x1="256" y1="325.5" x2="256" y2="1323.5" gradientUnits="userSpaceOnUse">
<stop stop-color="white"/>
<stop offset="1" stop-color="#DDDDDD" stop-opacity="0"/>
</linearGradient>
</defs>
</svg>
