<svg width="26" height="25" viewBox="0 0 26 25" fill="none" xmlns="http://www.w3.org/2000/svg">
<path d="M10.7144 2.5C9.38827 2.5 8.1165 3.02678 7.17882 3.96447C6.24114 4.90215 5.71436 6.17392 5.71436 7.5C5.71436 8.82608 6.24114 10.0979 7.17882 11.0355C8.1165 11.9732 9.38827 12.5 10.7144 12.5C12.0404 12.5 13.3122 11.9732 14.2499 11.0355C15.1876 10.0979 15.7144 8.82608 15.7144 7.5C15.7144 6.17392 15.1876 4.90215 14.2499 3.96447C13.3122 3.02678 12.0404 2.5 10.7144 2.5ZM3.21436 7.5C3.21436 5.51088 4.00453 3.60322 5.41105 2.1967C6.81758 0.790176 8.72523 0 10.7144 0C12.7035 0 14.6111 0.790176 16.0177 2.1967C17.4242 3.60322 18.2144 5.51088 18.2144 7.5C18.2144 9.48912 17.4242 11.3968 16.0177 12.8033C14.6111 14.2098 12.7035 15 10.7144 15C8.72523 15 6.81758 14.2098 5.41105 12.8033C4.00453 11.3968 3.21436 9.48912 3.21436 7.5ZM19.2494 2.19625C19.3654 2.08003 19.5033 1.98783 19.6551 1.92493C19.8068 1.86202 19.9695 1.82964 20.1337 1.82964C20.298 1.82964 20.4607 1.86202 20.6124 1.92493C20.7642 1.98783 20.902 2.08003 21.0181 2.19625C21.7147 2.89271 22.2672 3.71956 22.6442 4.62958C23.0212 5.53961 23.2153 6.51498 23.2153 7.5C23.2153 8.48502 23.0212 9.46039 22.6442 10.3704C22.2672 11.2804 21.7147 12.1073 21.0181 12.8038C20.902 12.9199 20.7641 13.012 20.6124 13.0749C20.4606 13.1377 20.298 13.1701 20.1337 13.1701C19.9695 13.1701 19.8069 13.1377 19.6551 13.0749C19.5034 13.012 19.3655 12.9199 19.2494 12.8038C19.1332 12.6876 19.0411 12.5497 18.9782 12.398C18.9154 12.2463 18.883 12.0836 18.883 11.9194C18.883 11.7551 18.9154 11.5925 18.9782 11.4408C19.0411 11.289 19.1332 11.1511 19.2494 11.035C20.1867 10.0974 20.7133 8.82582 20.7133 7.5C20.7133 6.17418 20.1867 4.90264 19.2494 3.965C19.1331 3.84891 19.0409 3.71105 18.978 3.5593C18.9151 3.40755 18.8827 3.24489 18.8827 3.08063C18.8827 2.91636 18.9151 2.7537 18.978 2.60195C19.0409 2.4502 19.1331 2.31234 19.2494 2.19625ZM20.1269 18.4463C20.2074 18.125 20.4123 17.8488 20.6963 17.6784C20.9804 17.508 21.3205 17.4573 21.6419 17.5375C23.3019 17.9525 24.3531 19.0125 24.9569 20.2225C25.5419 21.3912 25.7144 22.6975 25.7144 23.75C25.7144 24.0815 25.5827 24.3995 25.3482 24.6339C25.1138 24.8683 24.7959 25 24.4644 25C24.1328 25 23.8149 24.8683 23.5805 24.6339C23.3461 24.3995 23.2144 24.0815 23.2144 23.75C23.2144 22.9287 23.0744 22.0463 22.7219 21.34C22.3881 20.6737 21.8756 20.1725 21.0356 19.9625C20.7143 19.8819 20.4381 19.6771 20.2677 19.393C20.0974 19.109 20.0467 18.7676 20.1269 18.4463ZM6.33936 20C4.76436 20 3.21436 21.5163 3.21436 23.75C3.21436 24.0815 3.08266 24.3995 2.84824 24.6339C2.61382 24.8683 2.29588 25 1.96436 25C1.63283 25 1.31489 24.8683 1.08047 24.6339C0.846051 24.3995 0.714355 24.0815 0.714355 23.75C0.714355 20.46 3.08061 17.5 6.33936 17.5H15.0894C18.3481 17.5 20.7144 20.46 20.7144 23.75C20.7144 24.0815 20.5827 24.3995 20.3482 24.6339C20.1138 24.8683 19.7959 25 19.4644 25C19.1328 25 18.8149 24.8683 18.5805 24.6339C18.3461 24.3995 18.2144 24.0815 18.2144 23.75C18.2144 21.5163 16.6644 20 15.0894 20H6.33936Z" fill="#FF7A00"/>
</svg>
