<svg width="57" height="41" viewBox="0 0 57 41" fill="none" xmlns="http://www.w3.org/2000/svg">
<path d="M24.7144 2.5C23.3883 2.5 22.1165 3.02678 21.1788 3.96447C20.2411 4.90215 19.7144 6.17392 19.7144 7.5C19.7144 8.82608 20.2411 10.0979 21.1788 11.0355C22.1165 11.9732 23.3883 12.5 24.7144 12.5C26.0404 12.5 27.3122 11.9732 28.2499 11.0355C29.1876 10.0979 29.7144 8.82608 29.7144 7.5C29.7144 6.17392 29.1876 4.90215 28.2499 3.96447C27.3122 3.02678 26.0404 2.5 24.7144 2.5ZM17.2144 7.5C17.2144 5.51088 18.0045 3.60322 19.4111 2.1967C20.8176 0.790176 22.7252 0 24.7144 0C26.7035 0 28.6111 0.790176 30.0177 2.1967C31.4242 3.60322 32.2144 5.51088 32.2144 7.5C32.2144 9.48912 31.4242 11.3968 30.0177 12.8033C28.6111 14.2098 26.7035 15 24.7144 15C22.7252 15 20.8176 14.2098 19.4111 12.8033C18.0045 11.3968 17.2144 9.48912 17.2144 7.5ZM33.2494 2.19625C33.3654 2.08003 33.5033 1.98783 33.6551 1.92493C33.8068 1.86202 33.9695 1.82964 34.1337 1.82964C34.298 1.82964 34.4607 1.86202 34.6124 1.92493C34.7642 1.98783 34.902 2.08003 35.0181 2.19625C35.7147 2.89271 36.2672 3.71956 36.6442 4.62958C37.0212 5.53961 37.2153 6.51498 37.2153 7.5C37.2153 8.48502 37.0212 9.46039 36.6442 10.3704C36.2672 11.2804 35.7147 12.1073 35.0181 12.8038C34.902 12.9199 34.7641 13.012 34.6124 13.0749C34.4606 13.1377 34.298 13.1701 34.1337 13.1701C33.9695 13.1701 33.8069 13.1377 33.6551 13.0749C33.5034 13.012 33.3655 12.9199 33.2494 12.8038C33.1332 12.6876 33.0411 12.5497 32.9782 12.398C32.9154 12.2463 32.883 12.0836 32.883 11.9194C32.883 11.7551 32.9154 11.5925 32.9782 11.4408C33.0411 11.289 33.1332 11.1511 33.2494 11.035C34.1867 10.0974 34.7133 8.82582 34.7133 7.5C34.7133 6.17418 34.1867 4.90264 33.2494 3.965C33.1331 3.84891 33.0409 3.71105 32.978 3.5593C32.9151 3.40755 32.8827 3.24489 32.8827 3.08063C32.8827 2.91636 32.9151 2.7537 32.978 2.60195C33.0409 2.4502 33.1331 2.31234 33.2494 2.19625ZM34.1269 18.4463C34.2074 18.125 34.4123 17.8488 34.6963 17.6784C34.9804 17.508 35.3205 17.4573 35.6419 17.5375C37.3019 17.9525 38.3531 19.0125 38.9569 20.2225C39.5419 21.3912 39.7144 22.6975 39.7144 23.75C39.7144 24.0815 39.5827 24.3995 39.3482 24.6339C39.1138 24.8683 38.7959 25 38.4644 25C38.1328 25 37.8149 24.8683 37.5805 24.6339C37.3461 24.3995 37.2144 24.0815 37.2144 23.75C37.2144 22.9287 37.0744 22.0463 36.7219 21.34C36.3881 20.6738 35.8756 20.1725 35.0356 19.9625C34.7143 19.8819 34.4381 19.6771 34.2677 19.393C34.0974 19.109 34.0467 18.7676 34.1269 18.4463ZM20.3394 20C18.7644 20 17.2144 21.5163 17.2144 23.75C17.2144 24.0815 17.0827 24.3995 16.8482 24.6339C16.6138 24.8683 16.2959 25 15.9644 25C15.6328 25 15.3149 24.8683 15.0805 24.6339C14.8461 24.3995 14.7144 24.0815 14.7144 23.75C14.7144 20.46 17.0806 17.5 20.3394 17.5H29.0894C32.3481 17.5 34.7144 20.46 34.7144 23.75C34.7144 24.0815 34.5827 24.3995 34.3482 24.6339C34.1138 24.8683 33.7959 25 33.4644 25C33.1328 25 32.8149 24.8683 32.5805 24.6339C32.3461 24.3995 32.2144 24.0815 32.2144 23.75C32.2144 21.5163 30.6644 20 29.0894 20H20.3394Z" fill="#0D0D0D" fill-opacity="0.6"/>
<path d="M0.76 40V33H1.91V40H0.76ZM1.55 37V35.95H5.11V37H1.55ZM1.55 34.05V33H5.28V34.05H1.55ZM8.24406 40.1C7.8374 40.1 7.47406 40.01 7.15406 39.83C6.84073 39.65 6.59406 39.4033 6.41406 39.09C6.24073 38.77 6.15406 38.4033 6.15406 37.99V35.2H7.25406V37.94C7.25406 38.1733 7.29073 38.3733 7.36406 38.54C7.44406 38.7 7.5574 38.8233 7.70406 38.91C7.8574 38.9967 8.0374 39.04 8.24406 39.04C8.56406 39.04 8.8074 38.9467 8.97406 38.76C9.1474 38.5667 9.23406 38.2933 9.23406 37.94V35.2H10.3341V37.99C10.3341 38.41 10.2441 38.78 10.0641 39.1C9.89073 39.4133 9.6474 39.66 9.33406 39.84C9.02073 40.0133 8.6574 40.1 8.24406 40.1ZM14.7301 40V37.23C14.7301 36.91 14.6267 36.6467 14.4201 36.44C14.2201 36.2333 13.9601 36.13 13.6401 36.13C13.4267 36.13 13.2367 36.1767 13.0701 36.27C12.9034 36.3633 12.7734 36.4933 12.6801 36.66C12.5867 36.8267 12.5401 37.0167 12.5401 37.23L12.1101 36.99C12.1101 36.6233 12.1901 36.3 12.3501 36.02C12.5101 35.7333 12.7301 35.51 13.0101 35.35C13.2967 35.1833 13.6167 35.1 13.9701 35.1C14.3301 35.1 14.6501 35.1933 14.9301 35.38C15.2101 35.56 15.4301 35.7967 15.5901 36.09C15.7501 36.3767 15.8301 36.6767 15.8301 36.99V40H14.7301ZM11.4401 40V35.2H12.5401V40H11.4401ZM19.1579 40.1C18.6846 40.1 18.2546 39.99 17.8679 39.77C17.4879 39.55 17.1879 39.25 16.9679 38.87C16.7479 38.49 16.6379 38.0667 16.6379 37.6C16.6379 37.1267 16.7479 36.7033 16.9679 36.33C17.1879 35.95 17.4879 35.65 17.8679 35.43C18.2546 35.21 18.6846 35.1 19.1579 35.1C19.5312 35.1 19.8779 35.1733 20.1979 35.32C20.5246 35.46 20.8012 35.6633 21.0279 35.93L20.3079 36.66C20.1679 36.4933 19.9979 36.37 19.7979 36.29C19.6046 36.2033 19.3912 36.16 19.1579 36.16C18.8846 36.16 18.6412 36.2233 18.4279 36.35C18.2212 36.47 18.0579 36.6367 17.9379 36.85C17.8246 37.0633 17.7679 37.3133 17.7679 37.6C17.7679 37.88 17.8246 38.13 17.9379 38.35C18.0579 38.5633 18.2212 38.7333 18.4279 38.86C18.6412 38.98 18.8846 39.04 19.1579 39.04C19.3912 39.04 19.6046 39 19.7979 38.92C19.9979 38.8333 20.1679 38.7067 20.3079 38.54L21.0279 39.27C20.8012 39.5367 20.5246 39.7433 20.1979 39.89C19.8779 40.03 19.5312 40.1 19.1579 40.1ZM21.8309 40V35.2H22.9309V40H21.8309ZM22.3809 34.32C22.1943 34.32 22.0376 34.2567 21.9109 34.13C21.7909 34.0033 21.7309 33.8467 21.7309 33.66C21.7309 33.4733 21.7909 33.3167 21.9109 33.19C22.0376 33.0633 22.1943 33 22.3809 33C22.5743 33 22.7309 33.0633 22.8509 33.19C22.9709 33.3167 23.0309 33.4733 23.0309 33.66C23.0309 33.8467 22.9709 34.0033 22.8509 34.13C22.7309 34.2567 22.5743 34.32 22.3809 34.32ZM26.3647 40.1C25.898 40.1 25.4747 39.99 25.0947 39.77C24.7147 39.5433 24.4114 39.24 24.1847 38.86C23.9647 38.48 23.8547 38.0567 23.8547 37.59C23.8547 37.1233 23.9647 36.7033 24.1847 36.33C24.4114 35.9567 24.7147 35.66 25.0947 35.44C25.4747 35.2133 25.898 35.1 26.3647 35.1C26.838 35.1 27.2647 35.21 27.6447 35.43C28.0247 35.65 28.3247 35.95 28.5447 36.33C28.7714 36.7033 28.8847 37.1233 28.8847 37.59C28.8847 38.0567 28.7714 38.48 28.5447 38.86C28.3247 39.24 28.0247 39.5433 27.6447 39.77C27.2647 39.99 26.838 40.1 26.3647 40.1ZM26.3647 39.04C26.638 39.04 26.878 38.98 27.0847 38.86C27.298 38.7333 27.4614 38.56 27.5747 38.34C27.6947 38.12 27.7547 37.87 27.7547 37.59C27.7547 37.31 27.6947 37.0633 27.5747 36.85C27.4547 36.6367 27.2914 36.47 27.0847 36.35C26.878 36.2233 26.638 36.16 26.3647 36.16C26.098 36.16 25.858 36.2233 25.6447 36.35C25.438 36.47 25.2747 36.6367 25.1547 36.85C25.0414 37.0633 24.9847 37.31 24.9847 37.59C24.9847 37.87 25.0414 38.12 25.1547 38.34C25.2747 38.56 25.438 38.7333 25.6447 38.86C25.858 38.98 26.098 39.04 26.3647 39.04ZM33.0895 40V37.23C33.0895 36.91 32.9861 36.6467 32.7795 36.44C32.5795 36.2333 32.3195 36.13 31.9995 36.13C31.7861 36.13 31.5961 36.1767 31.4295 36.27C31.2628 36.3633 31.1328 36.4933 31.0395 36.66C30.9461 36.8267 30.8995 37.0167 30.8995 37.23L30.4695 36.99C30.4695 36.6233 30.5495 36.3 30.7095 36.02C30.8695 35.7333 31.0895 35.51 31.3695 35.35C31.6561 35.1833 31.9761 35.1 32.3295 35.1C32.6895 35.1 33.0095 35.1933 33.2895 35.38C33.5695 35.56 33.7895 35.7967 33.9495 36.09C34.1095 36.3767 34.1895 36.6767 34.1895 36.99V40H33.0895ZM29.7995 40V35.2H30.8995V40H29.7995ZM37.3173 40.1C36.8839 40.1 36.4906 39.99 36.1373 39.77C35.7906 39.55 35.5139 39.2533 35.3073 38.88C35.1073 38.5 35.0073 38.0767 35.0073 37.61C35.0073 37.1367 35.1073 36.7133 35.3073 36.34C35.5139 35.96 35.7906 35.66 36.1373 35.44C36.4906 35.2133 36.8839 35.1 37.3173 35.1C37.6839 35.1 38.0073 35.18 38.2873 35.34C38.5739 35.4933 38.8006 35.7067 38.9673 35.98C39.1339 36.2533 39.2173 36.5633 39.2173 36.91V38.29C39.2173 38.6367 39.1339 38.9467 38.9673 39.22C38.8073 39.4933 38.5839 39.71 38.2973 39.87C38.0106 40.0233 37.6839 40.1 37.3173 40.1ZM37.4973 39.06C37.9039 39.06 38.2306 38.9233 38.4773 38.65C38.7306 38.3767 38.8573 38.0267 38.8573 37.6C38.8573 37.3133 38.8006 37.06 38.6873 36.84C38.5739 36.62 38.4139 36.45 38.2073 36.33C38.0073 36.2033 37.7706 36.14 37.4973 36.14C37.2306 36.14 36.9939 36.2033 36.7873 36.33C36.5873 36.45 36.4273 36.62 36.3073 36.84C36.1939 37.06 36.1373 37.3133 36.1373 37.6C36.1373 37.8867 36.1939 38.14 36.3073 38.36C36.4273 38.58 36.5873 38.7533 36.7873 38.88C36.9939 39 37.2306 39.06 37.4973 39.06ZM38.7873 40V38.71L38.9773 37.54L38.7873 36.38V35.2H39.8873V40H38.7873ZM36.9273 34.51L36.4273 34.01L37.7073 32.38L38.5573 33.23L36.9273 34.51ZM41.108 40V35.2H42.208V40H41.108ZM42.208 37.33L41.828 37.14C41.828 36.5333 41.9614 36.0433 42.228 35.67C42.5014 35.29 42.9114 35.1 43.458 35.1C43.698 35.1 43.9147 35.1433 44.108 35.23C44.3014 35.3167 44.4814 35.4567 44.648 35.65L43.928 36.39C43.8414 36.2967 43.7447 36.23 43.638 36.19C43.5314 36.15 43.408 36.13 43.268 36.13C42.9614 36.13 42.708 36.2267 42.508 36.42C42.308 36.6133 42.208 36.9167 42.208 37.33ZM45.1903 40V35.2H46.2903V40H45.1903ZM45.7403 34.32C45.5536 34.32 45.397 34.2567 45.2703 34.13C45.1503 34.0033 45.0903 33.8467 45.0903 33.66C45.0903 33.4733 45.1503 33.3167 45.2703 33.19C45.397 33.0633 45.5536 33 45.7403 33C45.9336 33 46.0903 33.0633 46.2103 33.19C46.3303 33.3167 46.3903 33.4733 46.3903 33.66C46.3903 33.8467 46.3303 34.0033 46.2103 34.13C46.0903 34.2567 45.9336 34.32 45.7403 34.32ZM49.7241 40.1C49.2574 40.1 48.8341 39.99 48.4541 39.77C48.0741 39.5433 47.7707 39.24 47.5441 38.86C47.3241 38.48 47.2141 38.0567 47.2141 37.59C47.2141 37.1233 47.3241 36.7033 47.5441 36.33C47.7707 35.9567 48.0741 35.66 48.4541 35.44C48.8341 35.2133 49.2574 35.1 49.7241 35.1C50.1974 35.1 50.6241 35.21 51.0041 35.43C51.3841 35.65 51.6841 35.95 51.9041 36.33C52.1307 36.7033 52.2441 37.1233 52.2441 37.59C52.2441 38.0567 52.1307 38.48 51.9041 38.86C51.6841 39.24 51.3841 39.5433 51.0041 39.77C50.6241 39.99 50.1974 40.1 49.7241 40.1ZM49.7241 39.04C49.9974 39.04 50.2374 38.98 50.4441 38.86C50.6574 38.7333 50.8207 38.56 50.9341 38.34C51.0541 38.12 51.1141 37.87 51.1141 37.59C51.1141 37.31 51.0541 37.0633 50.9341 36.85C50.8141 36.6367 50.6507 36.47 50.4441 36.35C50.2374 36.2233 49.9974 36.16 49.7241 36.16C49.4574 36.16 49.2174 36.2233 49.0041 36.35C48.7974 36.47 48.6341 36.6367 48.5141 36.85C48.4007 37.0633 48.3441 37.31 48.3441 37.59C48.3441 37.87 48.4007 38.12 48.5141 38.34C48.6341 38.56 48.7974 38.7333 49.0041 38.86C49.2174 38.98 49.4574 39.04 49.7241 39.04ZM54.7288 40.1C54.4622 40.1 54.2055 40.0667 53.9588 40C53.7122 39.9267 53.4855 39.8267 53.2788 39.7C53.0722 39.5667 52.8922 39.4067 52.7388 39.22L53.4388 38.52C53.6055 38.7133 53.7955 38.86 54.0088 38.96C54.2288 39.0533 54.4755 39.1 54.7488 39.1C54.9955 39.1 55.1822 39.0633 55.3088 38.99C55.4355 38.9167 55.4988 38.81 55.4988 38.67C55.4988 38.5233 55.4388 38.41 55.3188 38.33C55.1988 38.25 55.0422 38.1833 54.8488 38.13C54.6622 38.07 54.4622 38.01 54.2488 37.95C54.0422 37.89 53.8422 37.81 53.6488 37.71C53.4622 37.6033 53.3088 37.46 53.1888 37.28C53.0688 37.1 53.0088 36.8667 53.0088 36.58C53.0088 36.2733 53.0788 36.01 53.2188 35.79C53.3655 35.57 53.5688 35.4 53.8288 35.28C54.0955 35.16 54.4122 35.1 54.7788 35.1C55.1655 35.1 55.5055 35.17 55.7988 35.31C56.0988 35.4433 56.3488 35.6467 56.5488 35.92L55.8488 36.62C55.7088 36.4467 55.5488 36.3167 55.3688 36.23C55.1888 36.1433 54.9822 36.1 54.7488 36.1C54.5288 36.1 54.3588 36.1333 54.2388 36.2C54.1188 36.2667 54.0588 36.3633 54.0588 36.49C54.0588 36.6233 54.1188 36.7267 54.2388 36.8C54.3588 36.8733 54.5122 36.9367 54.6988 36.99C54.8922 37.0433 55.0922 37.1033 55.2988 37.17C55.5122 37.23 55.7122 37.3167 55.8988 37.43C56.0922 37.5367 56.2488 37.6833 56.3688 37.87C56.4888 38.05 56.5488 38.2867 56.5488 38.58C56.5488 39.0467 56.3855 39.4167 56.0588 39.69C55.7322 39.9633 55.2888 40.1 54.7288 40.1Z" fill="#5F5F5F"/>
</svg>
