<svg width="26" height="42" viewBox="0 0 26 42" fill="none" xmlns="http://www.w3.org/2000/svg">
<path d="M12.2144 2.6C10.8588 2.6 9.55877 3.14786 8.60025 4.12304C7.64173 5.09823 7.10324 6.42087 7.10324 7.8C7.10324 9.17913 7.64173 10.5018 8.60025 11.477C9.55877 12.4521 10.8588 13 12.2144 13C13.5699 13 14.8699 12.4521 15.8285 11.477C16.787 10.5018 17.3255 9.17913 17.3255 7.8C17.3255 6.42087 16.787 5.09823 15.8285 4.12304C14.8699 3.14786 13.5699 2.6 12.2144 2.6ZM4.54769 7.8C4.54769 5.73131 5.35542 3.74735 6.7932 2.28457C8.23098 0.821783 10.181 0 12.2144 0C14.2477 0 16.1977 0.821783 17.6355 2.28457C19.0733 3.74735 19.881 5.73131 19.881 7.8C19.881 9.86869 19.0733 11.8526 17.6355 13.3154C16.1977 14.7782 14.2477 15.6 12.2144 15.6C10.181 15.6 8.23098 14.7782 6.7932 13.3154C5.35542 11.8526 4.54769 9.86869 4.54769 7.8ZM7.10324 20.8C6.08658 20.8 5.11156 21.2109 4.39267 21.9423C3.67378 22.6737 3.26991 23.6657 3.26991 24.7C3.26991 25.0448 3.13529 25.3754 2.89566 25.6192C2.65603 25.863 2.33102 26 1.99213 26C1.65325 26 1.32824 25.863 1.08861 25.6192C0.848978 25.3754 0.714355 25.0448 0.714355 24.7C0.714355 22.9761 1.38747 21.3228 2.58562 20.1038C3.78377 18.8848 5.40881 18.2 7.10324 18.2H17.3255C19.0199 18.2 20.6449 18.8848 21.8431 20.1038C23.0412 21.3228 23.7144 22.9761 23.7144 24.7C23.7144 25.0448 23.5797 25.3754 23.3401 25.6192C23.1005 25.863 22.7755 26 22.4366 26C22.0977 26 21.7727 25.863 21.5331 25.6192C21.2934 25.3754 21.1588 25.0448 21.1588 24.7C21.1588 23.6657 20.7549 22.6737 20.036 21.9423C19.3172 21.2109 18.3421 20.8 17.3255 20.8H7.10324Z" fill="#FF7A00"/>
<path d="M2.72 38.39V37.28H4.35C4.56333 37.28 4.75667 37.2367 4.93 37.15C5.10333 37.0633 5.24 36.94 5.34 36.78C5.44 36.6133 5.49 36.4133 5.49 36.18C5.49 35.9533 5.44 35.7567 5.34 35.59C5.24 35.4233 5.10333 35.2967 4.93 35.21C4.75667 35.1233 4.56333 35.08 4.35 35.08H2.72V33.97H4.49C4.93667 33.97 5.33667 34.06 5.69 34.24C6.05 34.42 6.33333 34.6767 6.54 35.01C6.74667 35.3367 6.85 35.7267 6.85 36.18C6.85 36.6333 6.74667 37.0267 6.54 37.36C6.33333 37.6867 6.05 37.94 5.69 38.12C5.33667 38.3 4.93667 38.39 4.49 38.39H2.72ZM1.72 41V33.97H3.08V41H1.72ZM9.8275 41.1C9.32083 41.1 8.87083 40.9933 8.4775 40.78C8.08417 40.56 7.77083 40.26 7.5375 39.88C7.31083 39.5 7.1975 39.0667 7.1975 38.58C7.1975 38.1 7.3075 37.6733 7.5275 37.3C7.75417 36.92 8.06083 36.62 8.4475 36.4C8.83417 36.1733 9.26417 36.06 9.7375 36.06C10.2042 36.06 10.6142 36.1667 10.9675 36.38C11.3275 36.5867 11.6075 36.8733 11.8075 37.24C12.0142 37.6 12.1175 38.01 12.1175 38.47C12.1175 38.5567 12.1108 38.6467 12.0975 38.74C12.0908 38.8267 12.0742 38.9267 12.0475 39.04L7.9875 39.05V38.07L11.4375 38.06L10.9075 38.47C10.8942 38.1833 10.8408 37.9433 10.7475 37.75C10.6608 37.5567 10.5308 37.41 10.3575 37.31C10.1908 37.2033 9.98417 37.15 9.7375 37.15C9.4775 37.15 9.25083 37.21 9.0575 37.33C8.86417 37.4433 8.71417 37.6067 8.6075 37.82C8.5075 38.0267 8.4575 38.2733 8.4575 38.56C8.4575 38.8533 8.51083 39.11 8.6175 39.33C8.73083 39.5433 8.89083 39.71 9.0975 39.83C9.30417 39.9433 9.54417 40 9.8175 40C10.0642 40 10.2875 39.96 10.4875 39.88C10.6875 39.7933 10.8608 39.6667 11.0075 39.5L11.7775 40.27C11.5442 40.5433 11.2575 40.75 10.9175 40.89C10.5842 41.03 10.2208 41.1 9.8275 41.1ZM12.9277 41V36.17H14.2377V41H12.9277ZM14.2377 38.33L13.7277 37.99C13.7877 37.3967 13.961 36.93 14.2477 36.59C14.5343 36.2433 14.9477 36.07 15.4877 36.07C15.721 36.07 15.931 36.11 16.1177 36.19C16.3043 36.2633 16.4743 36.3867 16.6277 36.56L15.8077 37.5C15.7343 37.42 15.6443 37.36 15.5377 37.32C15.4377 37.28 15.321 37.26 15.1877 37.26C14.9077 37.26 14.6777 37.35 14.4977 37.53C14.3243 37.7033 14.2377 37.97 14.2377 38.33ZM17.7571 41V35.5C17.7571 35.1533 17.8338 34.8433 17.9871 34.57C18.1404 34.29 18.3538 34.07 18.6271 33.91C18.9071 33.7433 19.2371 33.66 19.6171 33.66C19.8571 33.66 20.0704 33.6967 20.2571 33.77C20.4504 33.8433 20.6338 33.95 20.8071 34.09L20.0571 35.01C19.9971 34.9633 19.9304 34.93 19.8571 34.91C19.7904 34.8833 19.7104 34.87 19.6171 34.87C19.4438 34.87 19.3071 34.9233 19.2071 35.03C19.1138 35.13 19.0671 35.27 19.0671 35.45V41H17.7571ZM16.6371 37.32V36.17H21.4271V37.32H16.6371ZM20.7971 41V36.17H22.1071V41H20.7971ZM21.4471 35.78C21.2404 35.78 21.0671 35.71 20.9271 35.57C20.7938 35.43 20.7271 35.2567 20.7271 35.05C20.7271 34.8433 20.7938 34.67 20.9271 34.53C21.0671 34.39 21.2404 34.32 21.4471 34.32C21.6604 34.32 21.8338 34.39 21.9671 34.53C22.1004 34.67 22.1671 34.8433 22.1671 35.05C22.1671 35.2567 22.1004 35.43 21.9671 35.57C21.8338 35.71 21.6604 35.78 21.4471 35.78ZM23.2695 41V33.77H24.5795V41H23.2695Z" fill="#FF7A00"/>
</svg>
