<svg width="60" height="41" viewBox="0 0 60 41" fill="none" xmlns="http://www.w3.org/2000/svg">
<path d="M24.7144 2.5C23.3883 2.5 22.1165 3.02678 21.1788 3.96447C20.2411 4.90215 19.7144 6.17392 19.7144 7.5C19.7144 8.82608 20.2411 10.0979 21.1788 11.0355C22.1165 11.9732 23.3883 12.5 24.7144 12.5C26.0404 12.5 27.3122 11.9732 28.2499 11.0355C29.1876 10.0979 29.7144 8.82608 29.7144 7.5C29.7144 6.17392 29.1876 4.90215 28.2499 3.96447C27.3122 3.02678 26.0404 2.5 24.7144 2.5ZM17.2144 7.5C17.2144 5.51088 18.0045 3.60322 19.4111 2.1967C20.8176 0.790176 22.7252 0 24.7144 0C26.7035 0 28.6111 0.790176 30.0177 2.1967C31.4242 3.60322 32.2144 5.51088 32.2144 7.5C32.2144 9.48912 31.4242 11.3968 30.0177 12.8033C28.6111 14.2098 26.7035 15 24.7144 15C22.7252 15 20.8176 14.2098 19.4111 12.8033C18.0045 11.3968 17.2144 9.48912 17.2144 7.5ZM33.2494 2.19625C33.3654 2.08003 33.5033 1.98783 33.6551 1.92493C33.8068 1.86202 33.9695 1.82964 34.1337 1.82964C34.298 1.82964 34.4607 1.86202 34.6124 1.92493C34.7642 1.98783 34.902 2.08003 35.0181 2.19625C35.7147 2.89271 36.2672 3.71956 36.6442 4.62958C37.0212 5.53961 37.2153 6.51498 37.2153 7.5C37.2153 8.48502 37.0212 9.46039 36.6442 10.3704C36.2672 11.2804 35.7147 12.1073 35.0181 12.8038C34.902 12.9199 34.7641 13.012 34.6124 13.0749C34.4606 13.1377 34.298 13.1701 34.1337 13.1701C33.9695 13.1701 33.8069 13.1377 33.6551 13.0749C33.5034 13.012 33.3655 12.9199 33.2494 12.8038C33.1332 12.6876 33.0411 12.5497 32.9782 12.398C32.9154 12.2463 32.883 12.0836 32.883 11.9194C32.883 11.7551 32.9154 11.5925 32.9782 11.4408C33.0411 11.289 33.1332 11.1511 33.2494 11.035C34.1867 10.0974 34.7133 8.82582 34.7133 7.5C34.7133 6.17418 34.1867 4.90264 33.2494 3.965C33.1331 3.84891 33.0409 3.71105 32.978 3.5593C32.9151 3.40755 32.8827 3.24489 32.8827 3.08063C32.8827 2.91636 32.9151 2.7537 32.978 2.60195C33.0409 2.4502 33.1331 2.31234 33.2494 2.19625ZM34.1269 18.4463C34.2074 18.125 34.4123 17.8488 34.6963 17.6784C34.9804 17.508 35.3205 17.4573 35.6419 17.5375C37.3019 17.9525 38.3531 19.0125 38.9569 20.2225C39.5419 21.3912 39.7144 22.6975 39.7144 23.75C39.7144 24.0815 39.5827 24.3995 39.3482 24.6339C39.1138 24.8683 38.7959 25 38.4644 25C38.1328 25 37.8149 24.8683 37.5805 24.6339C37.3461 24.3995 37.2144 24.0815 37.2144 23.75C37.2144 22.9287 37.0744 22.0463 36.7219 21.34C36.3881 20.6737 35.8756 20.1725 35.0356 19.9625C34.7143 19.8819 34.4381 19.6771 34.2677 19.393C34.0974 19.109 34.0467 18.7676 34.1269 18.4463ZM20.3394 20C18.7644 20 17.2144 21.5163 17.2144 23.75C17.2144 24.0815 17.0827 24.3995 16.8482 24.6339C16.6138 24.8683 16.2959 25 15.9644 25C15.6328 25 15.3149 24.8683 15.0805 24.6339C14.8461 24.3995 14.7144 24.0815 14.7144 23.75C14.7144 20.46 17.0806 17.5 20.3394 17.5H29.0894C32.3481 17.5 34.7144 20.46 34.7144 23.75C34.7144 24.0815 34.5827 24.3995 34.3482 24.6339C34.1138 24.8683 33.7959 25 33.4644 25C33.1328 25 32.8149 24.8683 32.5805 24.6339C32.3461 24.3995 32.2144 24.0815 32.2144 23.75C32.2144 21.5163 30.6644 20 29.0894 20H20.3394Z" fill="#FF7A00"/>
<path d="M0.72 40V32.97H2.08V40H0.72ZM1.72 37.12V35.91H5.26V37.12H1.72ZM1.72 34.17V32.97H5.43V34.17H1.72ZM8.42125 40.1C7.99458 40.1 7.61458 40.01 7.28125 39.83C6.95458 39.65 6.69792 39.4 6.51125 39.08C6.32458 38.76 6.23125 38.39 6.23125 37.97V35.17H7.55125V37.94C7.55125 38.14 7.58458 38.3133 7.65125 38.46C7.71792 38.6 7.81792 38.7067 7.95125 38.78C8.08458 38.8533 8.24125 38.89 8.42125 38.89C8.69458 38.89 8.90792 38.8067 9.06125 38.64C9.21458 38.4733 9.29125 38.24 9.29125 37.94V35.17H10.6013V37.97C10.6013 38.3967 10.5079 38.77 10.3213 39.09C10.1413 39.41 9.88458 39.66 9.55125 39.84C9.22458 40.0133 8.84792 40.1 8.42125 40.1ZM14.8945 40V37.23C14.8945 36.9433 14.8045 36.71 14.6245 36.53C14.4445 36.35 14.2111 36.26 13.9245 36.26C13.7378 36.26 13.5711 36.3 13.4245 36.38C13.2778 36.46 13.1611 36.5733 13.0745 36.72C12.9945 36.8667 12.9545 37.0367 12.9545 37.23L12.4445 36.97C12.4445 36.59 12.5245 36.26 12.6845 35.98C12.8511 35.6933 13.0778 35.47 13.3645 35.31C13.6578 35.15 13.9878 35.07 14.3545 35.07C14.7078 35.07 15.0245 35.16 15.3045 35.34C15.5845 35.5133 15.8045 35.7433 15.9645 36.03C16.1245 36.31 16.2045 36.6133 16.2045 36.94V40H14.8945ZM11.6445 40V35.17H12.9545V40H11.6445ZM19.5397 40.1C19.0464 40.1 18.603 39.99 18.2097 39.77C17.8164 39.55 17.5064 39.25 17.2797 38.87C17.053 38.49 16.9397 38.0633 16.9397 37.59C16.9397 37.11 17.053 36.68 17.2797 36.3C17.5064 35.92 17.8164 35.62 18.2097 35.4C18.6097 35.1733 19.053 35.06 19.5397 35.06C19.9197 35.06 20.2697 35.13 20.5897 35.27C20.9097 35.41 21.1864 35.61 21.4197 35.87L20.5797 36.72C20.453 36.58 20.2997 36.4733 20.1197 36.4C19.9464 36.3267 19.753 36.29 19.5397 36.29C19.2997 36.29 19.083 36.3467 18.8897 36.46C18.703 36.5667 18.553 36.7167 18.4397 36.91C18.333 37.0967 18.2797 37.32 18.2797 37.58C18.2797 37.8333 18.333 38.06 18.4397 38.26C18.553 38.4533 18.703 38.6067 18.8897 38.72C19.083 38.8267 19.2997 38.88 19.5397 38.88C19.7597 38.88 19.9564 38.8433 20.1297 38.77C20.3097 38.69 20.463 38.5767 20.5897 38.43L21.4397 39.28C21.193 39.5467 20.9097 39.75 20.5897 39.89C20.2697 40.03 19.9197 40.1 19.5397 40.1ZM22.1816 40V35.17H23.5016V40H22.1816ZM22.8416 34.39C22.6282 34.39 22.4516 34.32 22.3116 34.18C22.1716 34.0333 22.1016 33.8533 22.1016 33.64C22.1016 33.4333 22.1716 33.2567 22.3116 33.11C22.4516 32.9633 22.6282 32.89 22.8416 32.89C23.0616 32.89 23.2382 32.9633 23.3716 33.11C23.5116 33.2567 23.5816 33.4333 23.5816 33.64C23.5816 33.8533 23.5116 34.0333 23.3716 34.18C23.2382 34.32 23.0616 34.39 22.8416 34.39ZM26.932 40.1C26.4454 40.1 26.0054 39.99 25.612 39.77C25.2254 39.5433 24.9154 39.24 24.682 38.86C24.4554 38.4733 24.342 38.0433 24.342 37.57C24.342 37.0967 24.4554 36.6733 24.682 36.3C24.9087 35.92 25.2187 35.62 25.612 35.4C26.0054 35.1733 26.442 35.06 26.922 35.06C27.4154 35.06 27.8554 35.1733 28.242 35.4C28.6354 35.62 28.9454 35.92 29.172 36.3C29.3987 36.6733 29.512 37.0967 29.512 37.57C29.512 38.0433 29.3987 38.4733 29.172 38.86C28.9454 39.24 28.6354 39.5433 28.242 39.77C27.8554 39.99 27.4187 40.1 26.932 40.1ZM26.922 38.88C27.1687 38.88 27.3854 38.8267 27.572 38.72C27.7654 38.6067 27.912 38.4533 28.012 38.26C28.1187 38.06 28.172 37.8333 28.172 37.58C28.172 37.3267 28.1187 37.1033 28.012 36.91C27.9054 36.7167 27.7587 36.5667 27.572 36.46C27.3854 36.3467 27.1687 36.29 26.922 36.29C26.682 36.29 26.4687 36.3467 26.282 36.46C26.0954 36.5667 25.9487 36.7167 25.842 36.91C25.7354 37.1033 25.682 37.3267 25.682 37.58C25.682 37.8333 25.7354 38.06 25.842 38.26C25.9487 38.4533 26.0954 38.6067 26.282 38.72C26.4687 38.8267 26.682 38.88 26.922 38.88ZM33.6054 40V37.23C33.6054 36.9433 33.5154 36.71 33.3354 36.53C33.1554 36.35 32.9221 36.26 32.6354 36.26C32.4487 36.26 32.2821 36.3 32.1354 36.38C31.9887 36.46 31.8721 36.5733 31.7854 36.72C31.7054 36.8667 31.6654 37.0367 31.6654 37.23L31.1554 36.97C31.1554 36.59 31.2354 36.26 31.3954 35.98C31.5621 35.6933 31.7887 35.47 32.0754 35.31C32.3687 35.15 32.6987 35.07 33.0654 35.07C33.4187 35.07 33.7354 35.16 34.0154 35.34C34.2954 35.5133 34.5154 35.7433 34.6754 36.03C34.8354 36.31 34.9154 36.6133 34.9154 36.94V40H33.6054ZM30.3554 40V35.17H31.6654V40H30.3554ZM37.9906 40.1C37.5506 40.1 37.154 39.99 36.8006 39.77C36.4473 39.55 36.1706 39.25 35.9706 38.87C35.7706 38.49 35.6706 38.0633 35.6706 37.59C35.6706 37.11 35.7706 36.68 35.9706 36.3C36.1706 35.92 36.4473 35.62 36.8006 35.4C37.154 35.18 37.5506 35.07 37.9906 35.07C38.3373 35.07 38.6473 35.14 38.9206 35.28C39.194 35.42 39.4106 35.6167 39.5706 35.87C39.7373 36.1167 39.8273 36.3967 39.8406 36.71V38.45C39.8273 38.77 39.7373 39.0533 39.5706 39.3C39.4106 39.5467 39.194 39.7433 38.9206 39.89C38.6473 40.03 38.3373 40.1 37.9906 40.1ZM38.2306 38.89C38.5973 38.89 38.894 38.77 39.1206 38.53C39.3473 38.2833 39.4606 37.9667 39.4606 37.58C39.4606 37.3267 39.4073 37.1033 39.3006 36.91C39.2006 36.71 39.0573 36.5567 38.8706 36.45C38.6906 36.3367 38.4773 36.28 38.2306 36.28C37.9906 36.28 37.7773 36.3367 37.5906 36.45C37.4106 36.5567 37.2673 36.71 37.1606 36.91C37.0606 37.1033 37.0106 37.3267 37.0106 37.58C37.0106 37.84 37.0606 38.07 37.1606 38.27C37.2673 38.4633 37.4106 38.6167 37.5906 38.73C37.7773 38.8367 37.9906 38.89 38.2306 38.89ZM39.3906 40V38.7L39.6006 37.52L39.3906 36.36V35.17H40.6906V40H39.3906ZM37.5806 34.55L37.0806 33.93L38.5206 32.37L39.3606 33.39L37.5806 34.55ZM41.8495 40V35.17H43.1595V40H41.8495ZM43.1595 37.33L42.6495 36.99C42.7095 36.3967 42.8829 35.93 43.1695 35.59C43.4562 35.2433 43.8695 35.07 44.4095 35.07C44.6429 35.07 44.8529 35.11 45.0395 35.19C45.2262 35.2633 45.3962 35.3867 45.5495 35.56L44.7295 36.5C44.6562 36.42 44.5662 36.36 44.4595 36.32C44.3595 36.28 44.2429 36.26 44.1095 36.26C43.8295 36.26 43.5995 36.35 43.4195 36.53C43.2462 36.7033 43.1595 36.97 43.1595 37.33ZM46.0097 40V35.17H47.3297V40H46.0097ZM46.6697 34.39C46.4564 34.39 46.2797 34.32 46.1397 34.18C45.9997 34.0333 45.9297 33.8533 45.9297 33.64C45.9297 33.4333 45.9997 33.2567 46.1397 33.11C46.2797 32.9633 46.4564 32.89 46.6697 32.89C46.8897 32.89 47.0664 32.9633 47.1997 33.11C47.3397 33.2567 47.4097 33.4333 47.4097 33.64C47.4097 33.8533 47.3397 34.0333 47.1997 34.18C47.0664 34.32 46.8897 34.39 46.6697 34.39ZM50.7602 40.1C50.2735 40.1 49.8335 39.99 49.4402 39.77C49.0535 39.5433 48.7435 39.24 48.5102 38.86C48.2835 38.4733 48.1702 38.0433 48.1702 37.57C48.1702 37.0967 48.2835 36.6733 48.5102 36.3C48.7368 35.92 49.0468 35.62 49.4402 35.4C49.8335 35.1733 50.2702 35.06 50.7502 35.06C51.2435 35.06 51.6835 35.1733 52.0702 35.4C52.4635 35.62 52.7735 35.92 53.0002 36.3C53.2268 36.6733 53.3402 37.0967 53.3402 37.57C53.3402 38.0433 53.2268 38.4733 53.0002 38.86C52.7735 39.24 52.4635 39.5433 52.0702 39.77C51.6835 39.99 51.2468 40.1 50.7602 40.1ZM50.7502 38.88C50.9968 38.88 51.2135 38.8267 51.4002 38.72C51.5935 38.6067 51.7402 38.4533 51.8402 38.26C51.9468 38.06 52.0002 37.8333 52.0002 37.58C52.0002 37.3267 51.9468 37.1033 51.8402 36.91C51.7335 36.7167 51.5868 36.5667 51.4002 36.46C51.2135 36.3467 50.9968 36.29 50.7502 36.29C50.5102 36.29 50.2968 36.3467 50.1102 36.46C49.9235 36.5667 49.7768 36.7167 49.6702 36.91C49.5635 37.1033 49.5102 37.3267 49.5102 37.58C49.5102 37.8333 49.5635 38.06 49.6702 38.26C49.7768 38.4533 49.9235 38.6067 50.1102 38.72C50.2968 38.8267 50.5102 38.88 50.7502 38.88Z" fill="#FF7A00"/>
</svg>
