<svg width="88" height="88" viewBox="0 0 88 88" fill="none" xmlns="http://www.w3.org/2000/svg">
<path d="M43.645 21.858C40.759 21.858 37.9912 23.0244 35.9505 25.1006C33.9097 27.1768 32.7633 29.9928 32.7633 32.929C32.7633 35.8652 33.9097 38.6811 35.9505 40.7573C37.9912 42.8335 40.759 43.9999 43.645 43.9999C46.531 43.9999 49.2988 42.8335 51.3395 40.7573C53.3803 38.6811 54.5267 35.8652 54.5267 32.929C54.5267 29.9928 53.3803 27.1768 51.3395 25.1006C49.2988 23.0244 46.531 21.858 43.645 21.858ZM27.3224 32.929C27.3224 28.5247 29.0421 24.3007 32.1032 21.1864C35.1643 18.0721 39.316 16.3225 43.645 16.3225C47.974 16.3225 52.1257 18.0721 55.1868 21.1864C58.2479 24.3007 59.9676 28.5247 59.9676 32.929C59.9676 37.3333 58.2479 41.5572 55.1868 44.6715C52.1257 47.7858 47.974 49.5354 43.645 49.5354C39.316 49.5354 35.1643 47.7858 32.1032 44.6715C29.0421 41.5572 27.3224 37.3333 27.3224 32.929ZM32.7633 60.6064C30.5988 60.6064 28.5229 61.4812 26.9924 63.0383C25.4618 64.5955 24.602 66.7075 24.602 68.9096C24.602 69.6437 24.3154 70.3476 23.8052 70.8667C23.295 71.3857 22.6031 71.6773 21.8816 71.6773C21.1601 71.6773 20.4681 71.3857 19.9579 70.8667C19.4477 70.3476 19.1611 69.6437 19.1611 68.9096C19.1611 65.2394 20.5942 61.7194 23.1451 59.1242C25.696 56.5289 29.1558 55.0709 32.7633 55.0709H54.5267C58.1342 55.0709 61.594 56.5289 64.1449 59.1242C66.6958 61.7194 68.1289 65.2394 68.1289 68.9096C68.1289 69.6437 67.8423 70.3476 67.3321 70.8667C66.8219 71.3857 66.1299 71.6773 65.4084 71.6773C64.6869 71.6773 63.995 71.3857 63.4848 70.8667C62.9746 70.3476 62.688 69.6437 62.688 68.9096C62.688 66.7075 61.8282 64.5955 60.2976 63.0383C58.7671 61.4812 56.6912 60.6064 54.5267 60.6064H32.7633Z" fill="#0D0D0D"/>
<circle cx="44" cy="44" r="42" stroke="black" stroke-width="4"/>
</svg>
