<svg width="26" height="42" viewBox="0 0 26 42" fill="none" xmlns="http://www.w3.org/2000/svg">
<path d="M12.2144 2.6C10.8588 2.6 9.55877 3.14786 8.60025 4.12304C7.64173 5.09823 7.10324 6.42087 7.10324 7.8C7.10324 9.17913 7.64173 10.5018 8.60025 11.477C9.55877 12.4521 10.8588 13 12.2144 13C13.5699 13 14.8699 12.4521 15.8285 11.477C16.787 10.5018 17.3255 9.17913 17.3255 7.8C17.3255 6.42087 16.787 5.09823 15.8285 4.12304C14.8699 3.14786 13.5699 2.6 12.2144 2.6ZM4.54769 7.8C4.54769 5.73131 5.35542 3.74735 6.7932 2.28457C8.23098 0.821783 10.181 0 12.2144 0C14.2477 0 16.1977 0.821783 17.6355 2.28457C19.0733 3.74735 19.881 5.73131 19.881 7.8C19.881 9.86869 19.0733 11.8526 17.6355 13.3154C16.1977 14.7782 14.2477 15.6 12.2144 15.6C10.181 15.6 8.23098 14.7782 6.7932 13.3154C5.35542 11.8526 4.54769 9.86869 4.54769 7.8ZM7.10324 20.8C6.08658 20.8 5.11156 21.2109 4.39267 21.9423C3.67378 22.6737 3.26991 23.6657 3.26991 24.7C3.26991 25.0448 3.13529 25.3754 2.89566 25.6192C2.65603 25.863 2.33102 26 1.99213 26C1.65325 26 1.32824 25.863 1.08861 25.6192C0.848978 25.3754 0.714355 25.0448 0.714355 24.7C0.714355 22.9761 1.38747 21.3228 2.58562 20.1038C3.78377 18.8848 5.40881 18.2 7.10324 18.2H17.3255C19.0199 18.2 20.6449 18.8848 21.8431 20.1038C23.0412 21.3228 23.7144 22.9761 23.7144 24.7C23.7144 25.0448 23.5797 25.3754 23.3401 25.6192C23.1005 25.863 22.7755 26 22.4366 26C22.0977 26 21.7727 25.863 21.5331 25.6192C21.2934 25.3754 21.1588 25.0448 21.1588 24.7C21.1588 23.6657 20.7549 22.6737 20.036 21.9423C19.3172 21.2109 18.3421 20.8 17.3255 20.8H7.10324Z" fill="#0D0D0D" fill-opacity="0.6"/>
<path d="M2.55 38.36V37.36H4.3C4.54 37.36 4.75 37.3133 4.93 37.22C5.11667 37.12 5.26333 36.9833 5.37 36.81C5.47667 36.63 5.53 36.42 5.53 36.18C5.53 35.94 5.47667 35.7333 5.37 35.56C5.26333 35.38 5.11667 35.2433 4.93 35.15C4.75 35.05 4.54 35 4.3 35H2.55V34H4.36C4.8 34 5.19333 34.09 5.54 34.27C5.89333 34.45 6.17 34.7033 6.37 35.03C6.57667 35.3567 6.68 35.74 6.68 36.18C6.68 36.62 6.57667 37.0033 6.37 37.33C6.17 37.6567 5.89333 37.91 5.54 38.09C5.19333 38.27 4.8 38.36 4.36 38.36H2.55ZM1.76 41V34H2.91V41H1.76ZM9.63102 41.1C9.15102 41.1 8.71768 40.9933 8.33102 40.78C7.95102 40.56 7.64768 40.26 7.42102 39.88C7.20102 39.5 7.09102 39.0733 7.09102 38.6C7.09102 38.1267 7.20102 37.7033 7.42102 37.33C7.64102 36.95 7.93768 36.65 8.31102 36.43C8.69102 36.21 9.11102 36.1 9.57102 36.1C10.0177 36.1 10.411 36.2033 10.751 36.41C11.0977 36.6167 11.3677 36.9 11.561 37.26C11.761 37.62 11.861 38.03 11.861 38.49C11.861 38.57 11.8543 38.6533 11.841 38.74C11.8343 38.82 11.821 38.91 11.801 39.01H7.86102V38.11H11.231L10.821 38.47C10.8077 38.1767 10.751 37.93 10.651 37.73C10.551 37.53 10.4077 37.3767 10.221 37.27C10.041 37.1633 9.81768 37.11 9.55102 37.11C9.27102 37.11 9.02768 37.17 8.82102 37.29C8.61435 37.41 8.45435 37.58 8.34102 37.8C8.22768 38.0133 8.17102 38.27 8.17102 38.57C8.17102 38.87 8.23102 39.1333 8.35102 39.36C8.47102 39.5867 8.64102 39.7633 8.86102 39.89C9.08102 40.01 9.33435 40.07 9.62102 40.07C9.86768 40.07 10.0943 40.0267 10.301 39.94C10.5143 39.8533 10.6943 39.7267 10.841 39.56L11.541 40.27C11.3077 40.5433 11.0243 40.75 10.691 40.89C10.3577 41.03 10.0043 41.1 9.63102 41.1ZM12.7428 41V36.2H13.8428V41H12.7428ZM13.8428 38.33L13.4628 38.14C13.4628 37.5333 13.5961 37.0433 13.8628 36.67C14.1361 36.29 14.5461 36.1 15.0928 36.1C15.3328 36.1 15.5495 36.1433 15.7428 36.23C15.9361 36.3167 16.1161 36.4567 16.2828 36.65L15.5628 37.39C15.4761 37.2967 15.3795 37.23 15.2728 37.19C15.1661 37.15 15.0428 37.13 14.9028 37.13C14.5961 37.13 14.3428 37.2267 14.1428 37.42C13.9428 37.6133 13.8428 37.9167 13.8428 38.33ZM17.4848 41V35.37C17.4848 35.05 17.5548 34.7667 17.6948 34.52C17.8415 34.2667 18.0415 34.0667 18.2948 33.92C18.5482 33.7733 18.8448 33.7 19.1848 33.7C19.4382 33.7 19.6582 33.7433 19.8448 33.83C20.0382 33.91 20.2182 34.0267 20.3848 34.18L19.6648 34.9C19.5982 34.8467 19.5248 34.8067 19.4448 34.78C19.3715 34.7467 19.2848 34.73 19.1848 34.73C18.9915 34.73 18.8415 34.7867 18.7348 34.9C18.6348 35.0133 18.5848 35.1667 18.5848 35.36V41H17.4848ZM16.3348 37.2V36.2H21.0148V37.2H16.3348ZM20.3848 41V36.2H21.4848V41H20.3848ZM20.9348 35.78C20.7482 35.78 20.5915 35.7167 20.4648 35.59C20.3448 35.4633 20.2848 35.3067 20.2848 35.12C20.2848 34.9333 20.3448 34.7767 20.4648 34.65C20.5915 34.5233 20.7482 34.46 20.9348 34.46C21.1282 34.46 21.2848 34.5233 21.4048 34.65C21.5248 34.7767 21.5848 34.9333 21.5848 35.12C21.5848 35.3067 21.5248 35.4633 21.4048 35.59C21.2848 35.7167 21.1282 35.78 20.9348 35.78ZM22.7135 41V33.8H23.8135V41H22.7135Z" fill="#5F5F5F"/>
</svg>
