<svg width="34" height="42" viewBox="0 0 34 42" fill="none" xmlns="http://www.w3.org/2000/svg">
<path fill-rule="evenodd" clip-rule="evenodd" d="M15.1116 1.64323L15.9018 0.857364C15.6926 0.647055 15.4082 0.528809 15.1116 0.528809C14.815 0.528809 14.5306 0.647055 14.3215 0.857364L15.1116 1.64323ZM22.7781 9.7859C22.0564 8.51834 21.2324 7.29667 20.4181 6.19138C19.2899 4.65997 18.1642 3.33038 17.3217 2.38442C16.8999 1.9108 16.5476 1.53178 16.2996 1.26997C16.1756 1.13903 16.0776 1.03731 16.0098 0.967619C15.976 0.932773 15.9497 0.905928 15.9315 0.887437L15.9104 0.866006L15.9045 0.86007L15.9027 0.858312L15.9022 0.857736C15.902 0.857533 15.9018 0.857364 15.1116 1.64323C14.3215 0.857364 14.3213 0.857533 14.3211 0.857736L14.3205 0.858312L14.3188 0.86007L14.3129 0.866006L14.2918 0.887437C14.2736 0.905928 14.2473 0.932773 14.2134 0.967619C14.1457 1.03731 14.0477 1.13903 13.9236 1.26997C13.6756 1.53178 13.3234 1.9108 12.9015 2.38442C12.059 3.33038 10.9334 4.65997 9.80515 6.19138C8.67944 7.71939 7.53517 9.46981 6.66837 11.2564C5.8089 13.028 5.17871 14.9228 5.17871 16.7165C5.17871 16.737 5.17927 16.7574 5.1804 16.7779C5.31959 19.3017 6.44667 21.669 8.31743 23.3619C10.1746 25.0424 12.6147 25.9225 15.1116 25.8122C16.4201 25.87 17.713 25.6558 18.9146 25.197C18.0628 24.7677 17.2967 24.1931 16.6488 23.5058C16.1624 23.5817 15.6662 23.6084 15.1674 23.5835C15.1302 23.5816 15.093 23.5816 15.0559 23.5835C13.1317 23.6798 11.2467 23.0067 9.81293 21.7092C8.3866 20.4185 7.52209 18.6141 7.40764 16.6862C7.41487 15.3831 7.88581 13.8533 8.67368 12.2293C9.46035 10.6079 10.5207 8.97787 11.5996 7.51339C12.676 6.05231 13.755 4.77732 14.5659 3.86683C14.7658 3.6424 14.9491 3.44049 15.1116 3.26381C15.2742 3.44049 15.4574 3.6424 15.6573 3.86683C16.4683 4.77732 17.5472 6.05231 18.6236 7.51339C19.225 8.32962 19.8205 9.19726 20.3662 10.0862C21.0681 9.8889 21.8084 9.78338 22.5734 9.78338C22.6418 9.78338 22.71 9.78423 22.7781 9.7859Z" fill="#FF7A00"/>
<path d="M17.3405 11.3389C17.4678 11.2117 17.6406 11.1403 17.8207 11.1403C18.0008 11.1403 18.1735 11.2117 18.3008 11.3389L21.0176 14.0523C21.1413 14.1802 21.2097 14.3516 21.2082 14.5294C21.2066 14.7073 21.1352 14.8774 21.0093 15.0032C20.8834 15.129 20.713 15.2003 20.5349 15.2018C20.3569 15.2034 20.1853 15.135 20.0572 15.0115L18.4998 13.456V21.3153C18.4998 21.4952 18.4283 21.6678 18.3009 21.795C18.1735 21.9222 18.0008 21.9937 17.8207 21.9937C17.6405 21.9937 17.4678 21.9222 17.3404 21.795C17.213 21.6678 17.1415 21.4952 17.1415 21.3153V13.456L15.5841 15.0115C15.456 15.135 15.2845 15.2034 15.1064 15.2018C14.9283 15.2003 14.758 15.129 14.632 15.0032C14.5061 14.8774 14.4347 14.7073 14.4331 14.5294C14.4316 14.3516 14.5 14.1802 14.6238 14.0523L17.3405 11.3389ZM23.9333 19.6778V11.8185C23.9333 11.6386 24.0048 11.466 24.1322 11.3388C24.2596 11.2116 24.4323 11.1401 24.6125 11.1401C24.7926 11.1401 24.9653 11.2116 25.0927 11.3388C25.2201 11.466 25.2916 11.6386 25.2916 11.8185V19.6778L26.849 18.1223C26.9771 17.9988 27.1487 17.9304 27.3267 17.932C27.5048 17.9335 27.6752 18.0048 27.8011 18.1306C27.927 18.2564 27.9984 18.4265 28 18.6044C28.0015 18.7822 27.9331 18.9536 27.8094 19.0815L25.0926 21.7949C24.9653 21.9221 24.7926 21.9935 24.6125 21.9935C24.4324 21.9935 24.2596 21.9221 24.1323 21.7949L21.4156 19.0815C21.2918 18.9536 21.2234 18.7822 21.2249 18.6044C21.2265 18.4265 21.2979 18.2564 21.4238 18.1306C21.5498 18.0048 21.7201 17.9335 21.8982 17.932C22.0763 17.9304 22.2478 17.9988 22.3759 18.1223L23.9333 19.6778Z" fill="#FF7A00"/>
<path d="M1.72 38.39V37.28H3.35C3.56333 37.28 3.75667 37.2367 3.93 37.15C4.10333 37.0633 4.24 36.94 4.34 36.78C4.44 36.6133 4.49 36.4133 4.49 36.18C4.49 35.9533 4.44 35.7567 4.34 35.59C4.24 35.4233 4.10333 35.2967 3.93 35.21C3.75667 35.1233 3.56333 35.08 3.35 35.08H1.72V33.97H3.49C3.93667 33.97 4.33667 34.06 4.69 34.24C5.05 34.42 5.33333 34.6767 5.54 35.01C5.74667 35.3367 5.85 35.7267 5.85 36.18C5.85 36.6333 5.74667 37.0267 5.54 37.36C5.33333 37.6867 5.05 37.94 4.69 38.12C4.33667 38.3 3.93667 38.39 3.49 38.39H1.72ZM0.72 41V33.97H2.08V41H0.72ZM8.7875 41.1C8.30083 41.1 7.86083 40.99 7.4675 40.77C7.08083 40.5433 6.77083 40.24 6.5375 39.86C6.31083 39.4733 6.1975 39.0433 6.1975 38.57C6.1975 38.0967 6.31083 37.6733 6.5375 37.3C6.76417 36.92 7.07417 36.62 7.4675 36.4C7.86083 36.1733 8.2975 36.06 8.7775 36.06C9.27083 36.06 9.71083 36.1733 10.0975 36.4C10.4908 36.62 10.8008 36.92 11.0275 37.3C11.2542 37.6733 11.3675 38.0967 11.3675 38.57C11.3675 39.0433 11.2542 39.4733 11.0275 39.86C10.8008 40.24 10.4908 40.5433 10.0975 40.77C9.71083 40.99 9.27417 41.1 8.7875 41.1ZM8.7775 39.88C9.02417 39.88 9.24083 39.8267 9.4275 39.72C9.62083 39.6067 9.7675 39.4533 9.8675 39.26C9.97417 39.06 10.0275 38.8333 10.0275 38.58C10.0275 38.3267 9.97417 38.1033 9.8675 37.91C9.76083 37.7167 9.61417 37.5667 9.4275 37.46C9.24083 37.3467 9.02417 37.29 8.7775 37.29C8.5375 37.29 8.32417 37.3467 8.1375 37.46C7.95083 37.5667 7.80417 37.7167 7.6975 37.91C7.59083 38.1033 7.5375 38.3267 7.5375 38.58C7.5375 38.8333 7.59083 39.06 7.6975 39.26C7.80417 39.4533 7.95083 39.6067 8.1375 39.72C8.32417 39.8267 8.5375 39.88 8.7775 39.88ZM13.8709 41.11C13.5975 41.11 13.3275 41.0733 13.0609 41C12.8009 40.9267 12.5609 40.8267 12.3409 40.7C12.1209 40.5667 11.9309 40.4067 11.7709 40.22L12.5509 39.43C12.7175 39.6167 12.9109 39.7567 13.1309 39.85C13.3509 39.9433 13.5942 39.99 13.8609 39.99C14.0742 39.99 14.2342 39.96 14.3409 39.9C14.4542 39.84 14.5109 39.75 14.5109 39.63C14.5109 39.4967 14.4509 39.3933 14.3309 39.32C14.2175 39.2467 14.0675 39.1867 13.8809 39.14C13.6942 39.0867 13.4975 39.03 13.2909 38.97C13.0909 38.9033 12.8975 38.82 12.7109 38.72C12.5242 38.6133 12.3709 38.47 12.2509 38.29C12.1375 38.1033 12.0809 37.8633 12.0809 37.57C12.0809 37.2633 12.1542 36.9967 12.3009 36.77C12.4542 36.5433 12.6709 36.3667 12.9509 36.24C13.2309 36.1133 13.5609 36.05 13.9409 36.05C14.3409 36.05 14.7009 36.12 15.0209 36.26C15.3475 36.4 15.6175 36.61 15.8309 36.89L15.0409 37.68C14.8942 37.5 14.7275 37.37 14.5409 37.29C14.3609 37.21 14.1642 37.17 13.9509 37.17C13.7575 37.17 13.6075 37.2 13.5009 37.26C13.4009 37.32 13.3509 37.4033 13.3509 37.51C13.3509 37.63 13.4075 37.7233 13.5209 37.79C13.6409 37.8567 13.7942 37.9167 13.9809 37.97C14.1675 38.0167 14.3609 38.0733 14.5609 38.14C14.7675 38.2 14.9609 38.2867 15.1409 38.4C15.3275 38.5133 15.4775 38.6633 15.5909 38.85C15.7109 39.0367 15.7709 39.2767 15.7709 39.57C15.7709 40.0433 15.6009 40.42 15.2609 40.7C14.9209 40.9733 14.4575 41.11 13.8709 41.11ZM17.3642 41V34.16H18.6742V41H17.3642ZM16.2342 37.32V36.17H19.8042V37.32H16.2342ZM22.6938 41.1C22.2071 41.1 21.7671 40.99 21.3738 40.77C20.9871 40.5433 20.6771 40.24 20.4438 39.86C20.2171 39.4733 20.1038 39.0433 20.1038 38.57C20.1038 38.0967 20.2171 37.6733 20.4438 37.3C20.6704 36.92 20.9804 36.62 21.3738 36.4C21.7671 36.1733 22.2038 36.06 22.6838 36.06C23.1771 36.06 23.6171 36.1733 24.0038 36.4C24.3971 36.62 24.7071 36.92 24.9338 37.3C25.1604 37.6733 25.2738 38.0967 25.2738 38.57C25.2738 39.0433 25.1604 39.4733 24.9338 39.86C24.7071 40.24 24.3971 40.5433 24.0038 40.77C23.6171 40.99 23.1804 41.1 22.6938 41.1ZM22.6838 39.88C22.9304 39.88 23.1471 39.8267 23.3338 39.72C23.5271 39.6067 23.6738 39.4533 23.7738 39.26C23.8804 39.06 23.9338 38.8333 23.9338 38.58C23.9338 38.3267 23.8804 38.1033 23.7738 37.91C23.6671 37.7167 23.5204 37.5667 23.3338 37.46C23.1471 37.3467 22.9304 37.29 22.6838 37.29C22.4438 37.29 22.2304 37.3467 22.0438 37.46C21.8571 37.5667 21.7104 37.7167 21.6038 37.91C21.4971 38.1033 21.4438 38.3267 21.4438 38.58C21.4438 38.8333 21.4971 39.06 21.6038 39.26C21.7104 39.4533 21.8571 39.6067 22.0438 39.72C22.2304 39.8267 22.4438 39.88 22.6838 39.88ZM27.7771 41.11C27.5038 41.11 27.2338 41.0733 26.9671 41C26.7071 40.9267 26.4671 40.8267 26.2471 40.7C26.0271 40.5667 25.8371 40.4067 25.6771 40.22L26.4571 39.43C26.6238 39.6167 26.8171 39.7567 27.0371 39.85C27.2571 39.9433 27.5004 39.99 27.7671 39.99C27.9804 39.99 28.1404 39.96 28.2471 39.9C28.3604 39.84 28.4171 39.75 28.4171 39.63C28.4171 39.4967 28.3571 39.3933 28.2371 39.32C28.1238 39.2467 27.9738 39.1867 27.7871 39.14C27.6004 39.0867 27.4038 39.03 27.1971 38.97C26.9971 38.9033 26.8038 38.82 26.6171 38.72C26.4304 38.6133 26.2771 38.47 26.1571 38.29C26.0438 38.1033 25.9871 37.8633 25.9871 37.57C25.9871 37.2633 26.0604 36.9967 26.2071 36.77C26.3604 36.5433 26.5771 36.3667 26.8571 36.24C27.1371 36.1133 27.4671 36.05 27.8471 36.05C28.2471 36.05 28.6071 36.12 28.9271 36.26C29.2538 36.4 29.5238 36.61 29.7371 36.89L28.9471 37.68C28.8004 37.5 28.6338 37.37 28.4471 37.29C28.2671 37.21 28.0704 37.17 27.8571 37.17C27.6638 37.17 27.5138 37.2 27.4071 37.26C27.3071 37.32 27.2571 37.4033 27.2571 37.51C27.2571 37.63 27.3138 37.7233 27.4271 37.79C27.5471 37.8567 27.7004 37.9167 27.8871 37.97C28.0738 38.0167 28.2671 38.0733 28.4671 38.14C28.6738 38.2 28.8671 38.2867 29.0471 38.4C29.2338 38.5133 29.3838 38.6633 29.4971 38.85C29.6171 39.0367 29.6771 39.2767 29.6771 39.57C29.6771 40.0433 29.5071 40.42 29.1671 40.7C28.8271 40.9733 28.3638 41.11 27.7771 41.11Z" fill="#FF7A00"/>
</svg>
