<svg width="17" height="18" viewBox="0 0 17 18" fill="none" xmlns="http://www.w3.org/2000/svg">
<path d="M8.24232 1.75836C7.27077 1.75836 6.339 2.12887 5.65201 2.78839C4.96502 3.4479 4.57907 4.34239 4.57907 5.27509C4.57907 6.20778 4.96502 7.10227 5.65201 7.76178C6.339 8.4213 7.27077 8.79181 8.24232 8.79181C9.21388 8.79181 10.1456 8.4213 10.8326 7.76178C11.5196 7.10227 11.9056 6.20778 11.9056 5.27509C11.9056 4.34239 11.5196 3.4479 10.8326 2.78839C10.1456 2.12887 9.21388 1.75836 8.24232 1.75836ZM2.74744 5.27509C2.74744 3.87605 3.32636 2.53431 4.35685 1.54504C5.38734 0.555766 6.78499 0 8.24232 0C9.69965 0 11.0973 0.555766 12.1278 1.54504C13.1583 2.53431 13.7372 3.87605 13.7372 5.27509C13.7372 6.67413 13.1583 8.01586 12.1278 9.00513C11.0973 9.9944 9.69965 10.5502 8.24232 10.5502C6.78499 10.5502 5.38734 9.9944 4.35685 9.00513C3.32636 8.01586 2.74744 6.67413 2.74744 5.27509ZM4.57907 14.0669C3.8504 14.0669 3.15158 14.3448 2.63633 14.8394C2.12109 15.334 1.83163 16.0049 1.83163 16.7044C1.83163 16.9376 1.73514 17.1612 1.56339 17.3261C1.39164 17.491 1.1587 17.5836 0.915813 17.5836C0.672925 17.5836 0.439984 17.491 0.268236 17.3261C0.0964872 17.1612 0 16.9376 0 16.7044C0 15.5386 0.482436 14.4205 1.34118 13.5961C2.19992 12.7717 3.36462 12.3085 4.57907 12.3085H11.9056C13.12 12.3085 14.2847 12.7717 15.1435 13.5961C16.0022 14.4205 16.4846 15.5386 16.4846 16.7044C16.4846 16.9376 16.3882 17.1612 16.2164 17.3261C16.0447 17.491 15.8117 17.5836 15.5688 17.5836C15.3259 17.5836 15.093 17.491 14.9213 17.3261C14.7495 17.1612 14.653 16.9376 14.653 16.7044C14.653 16.0049 14.3636 15.334 13.8483 14.8394C13.3331 14.3448 12.6342 14.0669 11.9056 14.0669H4.57907Z" fill="white"/>
</svg>
