<svg width="29" height="26" viewBox="0 0 29 26" fill="none" xmlns="http://www.w3.org/2000/svg">
<path d="M14.4066 1.00204C14.7365 1.33204 14.9219 1.77956 14.9219 2.24618C14.9219 2.7128 14.7365 3.16031 14.4066 3.49031L6.85209 11.0449H27.2404C27.7071 11.0449 28.1547 11.2303 28.4847 11.5603C28.8147 11.8903 29.0001 12.3379 29.0001 12.8046C29.0001 13.2713 28.8147 13.7189 28.4847 14.0489C28.1547 14.3789 27.7071 14.5643 27.2404 14.5643H6.85209L14.4066 22.1189C14.7272 22.4508 14.9046 22.8953 14.9006 23.3567C14.8965 23.8181 14.7115 24.2594 14.3852 24.5857C14.0589 24.912 13.6176 25.0971 13.1562 25.1011C12.6948 25.1051 12.2503 24.9277 11.9184 24.6072L1.35995 14.0487C1.03005 13.7187 0.844727 13.2712 0.844727 12.8046C0.844727 12.338 1.03005 11.8905 1.35995 11.5605L11.9184 1.00204C12.2484 0.672144 12.6959 0.486816 13.1625 0.486816C13.6291 0.486816 14.0766 0.672144 14.4066 1.00204Z" fill="#373737"/>
</svg>
